<svg width="148" height="49" viewBox="0 0 148 49" fill="none" xmlns="http://www.w3.org/2000/svg">
<path d="M99.3619 13.2368V15.5433H95.8352V26.5814H93.3372V15.708H89.8105V13.2368H99.3619Z" fill="#410A7B"/>
<path d="M109.354 13.5671C109.795 13.7318 110.089 14.0613 110.529 14.5556C110.823 14.8851 110.97 15.2146 111.117 15.7088C111.264 16.0383 111.264 16.5326 111.264 17.0268C111.264 17.6858 111.117 18.3448 110.823 18.839C110.529 19.3333 110.089 19.8275 109.354 20.157C109.942 20.3218 110.236 20.816 110.529 21.1455C110.823 21.6397 110.823 22.2987 110.823 23.2872V24.111C110.823 24.7699 110.823 25.0994 110.823 25.2642C110.823 25.5937 110.97 25.9232 111.264 26.0879V26.5822H108.472C108.325 26.2527 108.325 26.0879 108.325 25.9232C108.325 25.5937 108.178 25.0994 108.178 24.7699V23.6167C108.178 22.793 108.031 22.134 107.738 21.9692C107.444 21.6397 107.003 21.475 106.268 21.475H103.917V26.5822H101.566V13.4023H107.591C108.325 13.4023 108.913 13.4023 109.354 13.5671ZM104.358 15.5441V19.1685H107.003C107.591 19.1685 107.884 19.1685 108.178 19.0038C108.619 18.6743 108.913 18.18 108.913 17.521C108.913 16.6973 108.619 16.2031 108.178 15.8736C107.884 15.7088 107.591 15.7088 107.003 15.7088H104.358V15.5441Z" fill="#410A7B"/>
<path d="M114.644 13.2368H117.142V21.3095C117.142 22.298 117.289 22.957 117.436 23.2865C117.73 23.9454 118.318 24.4397 119.346 24.4397C120.375 24.4397 120.963 24.1102 121.256 23.2865C121.403 22.7922 121.55 22.1332 121.55 21.3095V13.2368H124.048V21.3095C124.048 22.7922 123.901 23.7807 123.461 24.6044C122.726 26.0872 121.403 26.7462 119.346 26.7462C117.289 26.7462 115.967 26.0872 115.232 24.6044C114.791 23.7807 114.644 22.7922 114.644 21.3095V13.2368Z" fill="#410A7B"/>
<path d="M129.191 22.4634C129.338 23.1224 129.485 23.4519 129.632 23.7814C130.073 24.2756 130.808 24.6051 131.689 24.6051C132.277 24.6051 132.718 24.6051 133.159 24.4404C133.894 24.1109 134.187 23.6166 134.187 22.9576C134.187 22.4634 134.041 22.1339 133.6 21.9691C133.306 21.8044 132.718 21.4749 131.983 21.3102L130.661 20.9807C129.338 20.6512 128.604 20.3217 128.016 19.9922C127.281 19.3332 126.84 18.5094 126.84 17.1915C126.84 16.0382 127.281 15.0497 128.016 14.226C128.751 13.4022 129.926 13.0728 131.396 13.0728C132.718 13.0728 133.747 13.4022 134.628 14.226C135.51 14.885 135.951 16.0382 136.098 17.5209H133.747C133.747 16.6972 133.453 16.203 132.865 15.8735C132.424 15.7087 131.983 15.544 131.396 15.544C130.808 15.544 130.22 15.7087 129.779 16.0382C129.338 16.3677 129.191 16.6972 129.191 17.1915C129.191 17.6857 129.338 18.0152 129.779 18.1799C130.073 18.3447 130.514 18.5094 131.396 18.6742L133.453 19.1684C134.334 19.3332 135.069 19.6627 135.51 20.1569C136.245 20.8159 136.539 21.6396 136.539 22.7929C136.539 23.9461 136.098 24.9346 135.216 25.7583C134.334 26.5821 133.159 26.9116 131.689 26.9116C130.073 26.9116 128.898 26.5821 128.016 25.7583C127.134 24.9346 126.693 23.9461 126.693 22.4634H129.191Z" fill="#410A7B"/>
<path d="M148 13.2368V15.5433H144.473V26.5814H141.975V15.708H138.449V13.2368H148Z" fill="#410A7B"/>
<path d="M90.8389 43.2208V30.041H92.6022L96.4227 41.7381L100.243 30.041H101.86V43.2208H100.684V31.5237L96.8636 43.3856H95.835L92.0144 31.5237V43.3856H90.8389V43.2208Z" fill="#410A7B"/>
<path d="M104.945 43.2208V30.041H106.121V43.2208H104.945Z" fill="#410A7B"/>
<path d="M110.236 31.6885V43.2208H109.06V30.041H110.383L117.142 41.5734V30.041H118.318V43.2208H116.995L110.236 31.6885Z" fill="#410A7B"/>
<path d="M121.403 43.2208V30.041H122.579V43.2208H121.403Z" fill="#410A7B"/>
<path d="M126.693 31.6885V43.2208H125.518V30.041H126.693L133.453 41.5734V30.041H134.628V43.2208H133.306L126.693 31.6885Z" fill="#410A7B"/>
<path d="M142.416 37.4554V36.4669H147.412V43.3863H146.53V41.0798C146.383 41.4093 146.09 41.9036 145.796 42.2331C145.502 42.5625 145.208 42.892 144.914 43.0568C144.62 43.2215 144.179 43.3863 143.738 43.551C143.298 43.7158 142.71 43.7158 142.122 43.7158C141.387 43.7158 140.653 43.551 140.065 43.2215C139.477 42.892 138.889 42.5625 138.448 41.9036C138.008 41.2446 137.567 40.5856 137.42 39.7618C137.126 38.9381 136.979 37.7849 136.979 36.6316C136.979 35.6431 137.126 34.8194 137.273 33.9957C137.42 33.1719 137.861 32.3482 138.301 31.8539C138.742 31.1949 139.33 30.7007 140.065 30.3712C140.8 30.0417 141.534 29.877 142.416 29.877C143.004 29.877 143.591 30.0417 144.179 30.2065C144.767 30.3712 145.208 30.7007 145.649 31.0302C146.09 31.3597 146.383 31.8539 146.677 32.3482C146.971 32.8424 147.118 33.5014 147.265 34.1604H146.09C145.943 33.6662 145.796 33.1719 145.649 32.8424C145.355 32.5129 145.061 32.1834 144.767 31.8539C144.473 31.5244 144.032 31.3597 143.738 31.1949C143.298 31.0302 142.857 31.0302 142.416 31.0302C141.681 31.0302 140.946 31.1949 140.359 31.5244C139.771 31.8539 139.33 32.1834 139.036 32.8424C138.742 33.3367 138.448 33.9957 138.301 34.8194C138.155 35.6431 138.008 36.4669 138.008 37.4554C138.008 38.1144 138.155 38.9381 138.301 39.5971C138.448 40.2561 138.742 40.9151 139.183 41.4093C139.624 41.9036 140.065 42.2331 140.506 42.5625C141.093 42.892 141.681 43.0568 142.269 43.0568C142.563 43.0568 142.857 43.0568 143.298 42.892C143.738 42.7273 144.032 42.7273 144.326 42.5625C144.62 42.3978 144.914 42.0683 145.208 41.9036C145.502 41.5741 145.649 41.2446 145.943 40.7503C146.09 40.2561 146.236 39.9266 146.383 39.4323C146.383 38.9381 146.53 38.4438 146.53 37.9496H142.416V37.4554Z" fill="#410A7B"/>
<path d="M68.6505 5.32934C57.4828 6.15308 47.3437 10.107 37.7923 16.5322C37.4985 16.2027 37.3515 15.7085 37.0576 15.379C36.6168 14.72 36.029 14.2257 35.2943 14.061C34.7065 13.8962 34.2657 14.2257 33.9718 14.8847C33.8249 15.5437 33.9718 16.8617 34.4126 17.6854C35.1474 17.5207 35.7351 17.1912 36.4698 17.0264C36.4698 17.0264 36.4698 17.0264 36.4698 17.1912C35.8821 17.6854 35.2943 18.0149 34.5596 18.5092C32.7963 19.6624 31.0329 20.9804 29.4166 22.1336C26.9185 23.9459 24.5674 25.9228 22.3633 28.0646C20.3061 30.0415 18.2488 32.1833 16.4855 34.4897C14.5753 36.961 12.8119 39.4322 11.1956 42.2329C11.0486 42.3976 11.0486 42.5624 10.9017 42.8919C10.9017 42.8919 10.9017 42.8919 11.0486 43.0566C11.4894 42.7271 11.7833 42.3976 12.2242 42.0681C15.7508 38.9379 19.2775 35.8077 23.098 33.007C25.8899 31.03 28.6818 29.0531 31.4738 27.2408C32.9432 26.2523 32.3554 26.4171 33.6779 27.2408C34.1188 27.5703 34.7065 27.8998 35.1474 28.2293C35.2943 28.3941 35.4412 28.3941 35.5882 28.2293C36.6168 27.5703 37.4985 27.0761 38.5271 26.4171C42.0537 33.5012 45.5803 40.5854 49.107 47.8343C48.8131 47.8343 48.6662 47.8343 48.5192 47.8343C38.674 47.8343 28.8288 47.8343 18.9836 47.8343C17.808 47.8343 16.7794 47.8343 15.6039 47.8343C14.4283 47.8343 13.2528 47.8343 11.9303 47.8343C7.52197 47.8343 3.99532 45.6926 1.64423 41.4091C0.61562 39.5969 0.174789 37.6199 0.0278459 35.4782C-0.119098 33.1718 0.321733 30.8653 1.20339 28.8883C2.52589 25.9228 4.5831 23.7811 7.37502 22.4631C8.55057 21.9689 9.72612 21.6394 10.9017 21.6394C11.6364 21.4746 12.3711 21.6394 13.1058 21.8041C13.2528 21.8041 13.3997 21.8041 13.5467 21.8041C13.5467 21.3099 13.6936 20.9804 13.6936 20.4862C13.9875 18.1797 14.5753 16.038 15.31 14.061C16.4855 11.0955 18.1019 8.6243 20.1591 6.48258C22.6572 3.84661 25.596 2.03439 28.9757 0.881149C31.3268 0.0574096 33.8249 -0.107338 36.176 0.0574096C40.2904 0.386906 43.964 1.86964 47.1967 4.5056C47.4906 4.67035 47.6376 4.8351 47.9314 5.1646C48.3723 5.65884 48.8131 5.65884 49.4009 5.49409C51.4581 5.49409 53.0745 5.1646 54.6908 4.99985C56.895 4.8351 58.9522 4.67035 61.1564 4.67035C63.2136 4.67035 65.1238 4.99985 67.181 5.1646C67.6219 5.1646 68.0627 5.1646 68.5035 5.32934C68.5035 5.1646 68.6505 5.32934 68.6505 5.32934Z" fill="#CE0CA1"/>
<path d="M42.3476 25.264C41.319 25.5935 40.2904 25.7582 39.4087 26.0877C39.4087 26.0877 39.4087 26.0877 39.4087 25.923L39.5556 25.7582C40.2904 25.264 41.0251 24.9345 41.6128 24.4402C42.4945 23.946 43.5231 23.287 44.4048 22.7927C45.1395 22.4632 44.9925 22.4632 44.9925 21.4748C44.9925 20.651 44.9925 19.6625 44.9925 18.8388C44.9925 18.674 45.1395 18.5093 45.2864 18.3445C47.0498 17.1913 48.8131 15.8733 50.7233 14.7201C52.4867 13.5669 54.25 12.5784 56.0133 11.5899C57.9236 10.6014 59.8338 9.9424 61.8911 9.77765C63.5074 9.6129 65.1238 9.6129 66.8871 9.9424C69.2382 10.4366 71.2954 11.4251 73.2057 12.9079C75.4099 14.5553 77.0262 16.8618 78.2018 19.4978C79.0834 21.4748 79.6712 23.4517 79.8182 25.5935C80.112 27.8999 80.112 30.2064 79.6712 32.5129C79.2304 34.9841 78.4957 37.1258 77.3201 39.2675C75.5568 42.233 73.3526 44.5395 70.5607 46.0222C68.9443 46.8459 67.328 47.5049 65.5646 47.8344C64.683 47.9992 63.6544 48.1639 62.7727 48.1639C60.2747 48.1639 57.7766 48.1639 55.4255 48.1639C54.9847 48.1639 54.6908 47.9992 54.3969 47.5049C52.6336 44.21 50.8703 41.0798 49.107 37.7848C46.9028 33.8309 44.8456 29.8769 42.6414 25.923C42.6414 25.5935 42.4945 25.4287 42.3476 25.264Z" fill="#CE0CA1"/>
</svg>
