<?xml version="1.0" encoding="utf-8"?>
<!-- Generator: Adobe Illustrator 16.0.0, SVG Export Plug-In . SVG Version: 6.00 Build 0)  -->
<!DOCTYPE svg PUBLIC "-//W3C//DTD SVG 1.1//EN" "http://www.w3.org/Graphics/SVG/1.1/DTD/svg11.dtd">
<svg version="1.1" id="Layer_1" xmlns="http://www.w3.org/2000/svg" xmlns:xlink="http://www.w3.org/1999/xlink" x="0px" y="0px"
	 width="250px" height="84px" viewBox="0 0 250 84" enable-background="new 0 0 250 84" xml:space="preserve">
<g>
	<g>
		<g>
			<text x='90' y='45' style='font-family: system-ui !important; font-size: 52px !important; font-weight: bold' fill="#FFFFFF">FOLEX</text>
		</g>
		<g>
			<text x='90' y='80' style='font-family: system-ui !important; font-size: 40px !important; font-weight: bold' fill="#FFFFFF">MINING</text>
		</g>
	</g>
	
		<linearGradient id="Union_5_1_" gradientUnits="userSpaceOnUse" x1="-149.1499" y1="316.9873" x2="-149.2499" y2="316.9866" gradientTransform="matrix(740.1266 0 0 -772.353 110468.4219 244868.5938)">
		<stop  offset="0" style="stop-color:#F08D2F"/>
		<stop  offset="1" style="stop-color:#EA523A"/>
	</linearGradient>
	<path id="Union_5" fill="url(#Union_5_1_)" d="M36.683,81.16c-0.561,0-1.218-1.015-1.218-1.015l-2.231-4.525L5.436,58.447
		l-0.011-0.008c-0.19-0.146-0.406-0.311-0.482-0.618c-0.089-0.358,0.025-0.846,0.349-1.49l6.106-14.667l-0.57-38.161
		c-0.034-0.176,0.013-0.358,0.128-0.496c0.118-0.141,0.291-0.222,0.474-0.224c0.129,0,0.254,0.043,0.357,0.12l23.11,23.256h15.081
		L73.09,2.903c0.104-0.077,0.229-0.119,0.358-0.12c0.183,0.001,0.355,0.083,0.474,0.223c0.115,0.138,0.163,0.319,0.127,0.496
		l-0.575,38.475l6.236,14.354c0.127,0.277,0.221,0.567,0.277,0.867c0.047,0.232,0.045,0.472-0.006,0.704
		c-0.053,0.233-0.205,0.432-0.415,0.545L51.684,75.739l-2.113,4.406c0,0-0.758,1.015-1.319,1.015H36.683z M41.734,34.766
		c-0.007,0.004-11.167,4.371-15.964,6.248l-0.273,0.105c-0.128,0.075-0.217,0.204-0.243,0.349c-0.028,0.151-0.025,0.305,0.007,0.457
		c0.038,0.194,0.099,0.383,0.18,0.563l14.522,32.457h5.059l14.524-32.457c0.051-0.113,0.092-0.229,0.123-0.349
		c0.065-0.211,0.068-0.438,0.006-0.649c-0.051-0.138-0.159-0.245-0.295-0.296l-16.279-6.428c-0.201-0.102-0.423-0.155-0.649-0.152
		C42.205,34.615,41.96,34.667,41.734,34.766L41.734,34.766z M65.554,44.222l-9.438,20.422c-0.001,0.005-0.169,0.505-0.027,0.703
		c0.041,0.055,0.105,0.085,0.172,0.081c0.148-0.015,0.29-0.066,0.413-0.148c0.953-0.551,14.526-9.049,14.664-9.133
		c0.239-0.159,0.443-0.364,0.603-0.603c0.144-0.215,0.233-0.462,0.261-0.718c0.026-0.334-0.045-0.668-0.204-0.964
		c-0.332-0.655-0.758-1.753-1.252-3.023c-0.6-1.545-1.28-3.296-2.021-4.866c-0.769-1.628-1.682-1.97-2.312-1.97
		C66.111,44.001,65.816,44.076,65.554,44.222z M16.183,45.973c-0.741,1.568-1.421,3.321-2.021,4.864
		c-0.494,1.272-0.92,2.37-1.251,3.025c-0.159,0.294-0.229,0.63-0.204,0.962c0.027,0.258,0.117,0.503,0.261,0.719
		c0.159,0.239,0.364,0.442,0.603,0.602c0.137,0.086,13.711,8.582,14.664,9.133c0.124,0.083,0.265,0.134,0.413,0.15
		c0.068,0.002,0.133-0.028,0.173-0.081c0.142-0.2-0.026-0.698-0.027-0.703l-9.438-20.422c-0.263-0.147-0.559-0.223-0.859-0.221
		C17.865,44.003,16.953,44.345,16.183,45.973z M66.862,20.151L53.919,31.929c-0.171,0.146-0.192,0.402-0.047,0.573
		c0.041,0.048,0.093,0.085,0.151,0.111l12.916,5.049c0.206,0.087,0.445-0.008,0.533-0.215c0.024-0.059,0.035-0.122,0.031-0.185
		l0.026-16.828c-0.013-0.215-0.192-0.383-0.407-0.38C67.026,20.055,66.934,20.089,66.862,20.151L66.862,20.151z M17.349,20.434
		l0.026,16.828c-0.008,0.111,0.031,0.221,0.107,0.303c0.077,0.083,0.185,0.13,0.297,0.13c0.055,0,0.108-0.011,0.159-0.033
		l12.916-5.048c0.207-0.089,0.303-0.327,0.215-0.533c-0.025-0.059-0.063-0.11-0.111-0.151L18.016,20.151
		c-0.072-0.063-0.165-0.096-0.26-0.096C17.541,20.053,17.361,20.22,17.349,20.434L17.349,20.434z"/>
</g>
</svg>
