<?xml version="1.0" encoding="utf-8"?>
<svg viewBox="23.585 7.862 429.77 187.106" xmlns="http://www.w3.org/2000/svg" xmlns:xlink="http://www.w3.org/1999/xlink">
  <defs>
    <linearGradient id="linear-gradient" x1="87.7" y1="215.42" x2="187.2" y2="393.88" gradientUnits="userSpaceOnUse" gradientTransform="matrix(1, 0, 0, 1, -62.595175, -197.279633)">
      <stop offset="0.11" stop-color="#03c9ff"/>
      <stop offset="0.12" stop-color="#03cdff"/>
      <stop offset="1" stop-color="#0467f7"/>
    </linearGradient>
    <linearGradient id="linear-gradient-2" x1="89.79" y1="214.26" x2="189.29" y2="392.71" gradientTransform="matrix(1, 0, 0, 1, -62.595175, -197.279633)" xlink:href="#linear-gradient"/>
    <linearGradient id="linear-gradient-3" x1="108.1" y1="204.05" x2="207.6" y2="382.51" gradientTransform="matrix(1, 0, 0, 1, -62.595175, -197.279633)" xlink:href="#linear-gradient"/>
    <linearGradient id="linear-gradient-4" x1="144.54" y1="183.73" x2="244.04" y2="362.19" gradientTransform="matrix(1, 0, 0, 1, -62.595175, -197.279633)" xlink:href="#linear-gradient"/>
    <linearGradient id="linear-gradient-5" x1="132.54" y1="190.42" x2="232.04" y2="368.88" gradientTransform="matrix(1, 0, 0, 1, -62.595175, -197.279633)" xlink:href="#linear-gradient"/>
    <linearGradient id="linear-gradient-6" x1="77.8" y1="220.94" x2="177.3" y2="399.4" gradientTransform="matrix(1, 0, 0, 1, -62.595175, -197.279633)" xlink:href="#linear-gradient"/>
    <linearGradient id="linear-gradient-7" x1="98.75" y1="209.26" x2="198.25" y2="387.72" gradientTransform="matrix(1, 0, 0, 1, -62.595175, -197.279633)" xlink:href="#linear-gradient"/>
    <linearGradient id="linear-gradient-8" x1="141.9" y1="185.2" x2="241.4" y2="363.66" gradientTransform="matrix(1, 0, 0, 1, -62.595175, -197.279633)" xlink:href="#linear-gradient"/>
    <linearGradient id="linear-gradient-9" x1="161.77" y1="174.12" x2="261.27" y2="352.58" gradientTransform="matrix(1, 0, 0, 1, -62.595175, -197.279633)" xlink:href="#linear-gradient"/>
    <linearGradient id="linear-gradient-10" x1="87.93" y1="215.29" x2="187.43" y2="393.75" gradientTransform="matrix(1, 0, 0, 1, -62.595175, -197.279633)" xlink:href="#linear-gradient"/>
    <linearGradient id="linear-gradient-11" x1="111.83" y1="201.97" x2="211.33" y2="380.43" gradientTransform="matrix(1, 0, 0, 1, -62.595175, -197.279633)" xlink:href="#linear-gradient"/>
    <linearGradient id="linear-gradient-12" x1="121.84" y1="196.39" x2="221.34" y2="374.84" gradientTransform="matrix(1, 0, 0, 1, -62.595175, -197.279633)" xlink:href="#linear-gradient"/>
    <linearGradient id="linear-gradient-13" x1="121.84" y1="196.39" x2="221.34" y2="374.84" gradientTransform="matrix(1, 0, 0, 1, -62.595175, -197.279633)" xlink:href="#linear-gradient"/>
    <linearGradient id="linear-gradient-14" x1="166.18" y1="171.67" x2="265.68" y2="350.12" gradientTransform="matrix(1, 0, 0, 1, -62.595175, -197.279633)" xlink:href="#linear-gradient"/>
    <linearGradient id="linear-gradient-15" x1="166.14" y1="171.69" x2="265.64" y2="350.15" gradientTransform="matrix(1, 0, 0, 1, -62.595175, -197.279633)" xlink:href="#linear-gradient"/>
    <linearGradient id="linear-gradient-16" x1="331.76" y1="198.86" x2="398.53" y2="361.6" gradientTransform="matrix(1, 0, 0, 1, -62.595175, -197.279633)" xlink:href="#linear-gradient"/>
  </defs>
  <path class="cls-1" d="M 267.324 54.301 L 258.404 54.301 L 258.404 104.151 L 292.474 104.151 L 292.474 96.321 L 267.324 96.321 L 267.324 54.301 Z M 381.164 82.081 C 381.164 92.331 376.764 96.751 369.004 96.751 C 361.244 96.751 356.774 92.331 356.774 82.081 L 356.774 54.301 L 347.844 54.301 L 347.844 82.431 C 347.844 96.961 355.744 104.861 368.934 104.861 C 382.124 104.861 389.934 96.961 389.934 82.431 L 389.934 54.301 L 381.144 54.301 L 381.164 82.081 Z M 235.304 61.721 C 240.243 61.66 244.952 63.8 248.154 67.561 L 253.924 61.931 C 249.454 56.521 242.724 53.601 234.924 53.601 C 220.154 53.601 209.164 64.351 209.164 79.241 C 209.164 94.131 220.164 104.871 234.854 104.871 C 242.754 104.871 249.484 101.951 253.954 96.541 L 248.184 90.841 C 244.997 94.641 240.265 96.802 235.304 96.721 C 225.304 96.721 218.134 89.451 218.134 79.201 C 218.134 68.951 225.344 61.721 235.304 61.721 Z M 316.994 53.601 C 302.084 53.601 291.094 64.501 291.094 79.241 C 291.094 93.981 302.094 104.871 316.994 104.871 C 331.894 104.871 342.894 94.051 342.894 79.241 C 342.894 64.431 331.904 53.591 316.994 53.591 L 316.994 53.601 Z M 316.994 96.761 C 307.304 96.761 300.094 89.421 300.094 79.241 C 300.094 69.061 307.304 61.721 316.994 61.721 C 326.684 61.721 333.894 69.051 333.894 79.241 C 333.894 89.431 326.684 96.721 316.994 96.721 L 316.994 96.761 Z M 419.404 54.301 L 398.404 54.301 L 398.404 104.151 L 419.404 104.151 C 434.994 104.151 445.644 94.151 445.644 79.231 C 445.644 64.311 434.954 54.301 419.404 54.301 Z M 418.984 96.301 L 407.274 96.301 L 407.274 62.141 L 418.944 62.141 C 429.664 62.141 436.604 68.901 436.604 79.231 C 436.604 89.561 429.664 96.321 418.944 96.321 L 418.984 96.301 Z" style="fill: rgb(25, 46, 114);"/>
  <path class="cls-2" d="M 86.014 40.221 L 86.014 30.951 C 30.722 44.032 10.325 112.064 49.3 153.408 C 59.048 163.749 71.575 171.056 85.374 174.451 L 85.374 165.151 C 37.357 151.579 22.038 91.116 57.8 56.318 C 65.686 48.644 75.396 43.105 86.014 40.221 Z" style="fill: url('#linear-gradient');"/>
  <rect class="cls-3" x="106.234" y="144.291" width="9.31" height="45.58" style="fill: url('#linear-gradient-2');"/>
  <path class="cls-4" d="M 132.464 130.891 C 125.531 138.167 116.146 142.613 106.124 143.371 L 106.124 152.371 C 118.531 151.606 130.198 146.209 138.814 137.251 L 132.464 130.891 Z" style="fill: url('#linear-gradient-3');"/>
  <rect class="cls-5" x="106.234" y="15.581" width="9.31" height="45.58" style="fill: url('#linear-gradient-4');"/>
  <rect class="cls-6" x="90.504" y="15.581" width="9.31" height="45.58" style="fill: url('#linear-gradient-5');"/>
  <rect class="cls-7" x="90.504" y="144.291" width="9.31" height="45.58" style="fill: url('#linear-gradient-6');"/>
  <path class="cls-8" d="M 53.274 102.771 C 53.314 128.975 73.665 150.66 99.814 152.361 L 99.814 143.361 C 68.561 140.956 51.63 105.62 69.34 79.755 C 76.309 69.577 87.516 63.107 99.814 62.161 L 99.814 53.161 C 73.655 54.857 53.299 76.557 53.274 102.771 Z" style="fill: url('#linear-gradient-7');"/>
  <path class="cls-9" d="M 138.454 67.911 C 129.874 59.183 118.37 53.937 106.154 53.181 L 106.154 62.181 C 115.985 62.928 125.208 67.225 132.104 74.271 L 138.454 67.911 Z" style="fill: url('#linear-gradient-8');"/>
  <path class="cls-10" d="M 155.474 50.891 C 145.607 40.899 133.094 33.93 119.404 30.801 L 119.404 40.031 C 130.681 42.992 140.95 48.937 149.134 57.241 L 155.474 50.891 Z" style="fill: url('#linear-gradient-9');"/>
  <path class="cls-11" d="M 106.194 176.461 C 109.328 176.342 112.451 176.025 115.544 175.511 L 115.544 166.381 C 112.458 166.961 109.333 167.319 106.194 167.451 L 106.194 176.461 Z" style="fill: url('#linear-gradient-10');"/>
  <path class="cls-12" d="M 149.494 147.921 C 141.561 156.085 131.623 162.023 120.674 165.141 L 120.674 174.441 C 134.05 171.129 146.232 164.142 155.844 154.271 L 149.494 147.921 Z" style="fill: url('#linear-gradient-11');"/>
  <path class="cls-13" d="M 141.484 135.031 L 141.404 89.401 L 119.554 127.401 L 115.554 127.401 L 93.744 89.721 L 93.744 135.081 L 85.454 135.081 L 85.454 72.401 L 92.534 72.401 L 117.744 116.401 L 142.604 72.401 L 149.684 72.401 L 149.774 135.031 L 141.484 135.031 Z" style="fill: url('#linear-gradient-12');"/>
  <path class="cls-14" d="M 150.154 135.401 L 141.154 135.401 L 141.154 135.031 L 141.074 90.801 L 119.814 127.801 L 115.404 127.801 L 94.154 91.061 L 94.154 135.401 L 85.154 135.401 L 85.154 72.031 L 92.814 72.031 L 117.814 115.661 L 142.404 72.031 L 150.074 72.031 L 150.074 72.401 L 150.154 135.401 Z M 141.864 134.651 L 149.404 134.651 L 149.314 72.771 L 142.824 72.771 L 117.744 117.181 L 92.314 72.771 L 85.824 72.771 L 85.824 134.651 L 93.404 134.651 L 93.404 88.271 L 115.844 127.051 L 119.384 127.051 L 141.814 88.001 L 141.864 134.651 Z" style="fill: url('#linear-gradient-13');"/>
  <path class="cls-15" d="M 167.404 72.401 L 143.794 72.401 L 143.794 80.161 L 156.904 80.161 L 167.104 80.161 C 178.154 80.161 183.934 85.261 183.934 94.211 C 183.934 103.161 178.154 108.261 167.104 108.261 L 156.904 108.261 L 156.904 116.041 L 167.404 116.041 C 183.114 116.041 192.614 107.811 192.614 94.211 C 192.614 80.611 183.074 72.401 167.404 72.401 Z" style="fill: url('#linear-gradient-14');"/>
  <path class="cls-16" d="M 167.404 116.441 L 156.534 116.441 L 156.534 107.901 L 167.104 107.901 C 177.714 107.901 183.564 103.051 183.564 94.231 C 183.564 85.411 177.714 80.561 167.104 80.561 L 143.414 80.561 L 143.414 72.061 L 167.414 72.061 C 183.414 72.061 192.994 80.361 192.994 94.261 C 192.994 108.161 183.404 116.441 167.404 116.441 Z M 157.284 115.721 L 167.404 115.721 C 182.954 115.721 192.234 107.721 192.234 94.261 C 192.234 80.801 182.954 72.801 167.404 72.801 L 144.204 72.801 L 144.204 79.801 L 167.144 79.801 C 178.244 79.801 184.354 84.921 184.354 94.221 C 184.354 103.521 178.244 108.641 167.144 108.641 L 157.324 108.641 L 157.284 115.721 Z" style="fill: url('#linear-gradient-15');"/>
  <path class="cls-17" d="M 248.974 145.261 L 254.524 145.261 L 254.524 114.331 L 248.974 114.331 L 248.974 145.261 Z M 297.534 131.921 L 311.944 131.921 L 311.944 127.191 L 297.534 127.191 L 297.534 119.141 L 313.774 119.141 L 313.774 114.331 L 291.994 114.331 L 291.994 145.261 L 314.404 145.261 L 314.404 140.441 L 297.534 140.441 L 297.534 131.921 Z M 281.034 135.271 L 264.574 114.331 L 260.014 114.331 L 260.014 145.261 L 265.514 145.261 L 265.514 124.261 L 281.974 145.261 L 286.534 145.261 L 286.534 114.331 L 281.034 114.331 L 281.034 135.271 Z M 238.874 114.331 L 227.234 134.831 L 215.404 114.331 L 210.844 114.331 L 210.844 145.261 L 216.134 145.261 L 216.134 125.021 L 225.934 141.721 L 228.404 141.721 L 238.214 124.721 L 238.214 145.221 L 243.464 145.221 L 243.404 114.331 L 238.874 114.331 Z M 402.874 113.891 C 393.614 113.891 386.794 120.651 386.794 129.791 C 386.794 138.931 393.614 145.721 402.874 145.721 C 412.134 145.721 418.944 139.011 418.944 129.811 C 418.944 120.611 412.124 113.891 402.874 113.891 Z M 402.874 140.661 C 396.874 140.661 392.384 136.111 392.384 129.791 C 392.384 123.471 396.864 118.921 402.874 118.921 C 408.884 118.921 413.404 123.471 413.404 129.791 C 413.404 136.111 408.884 140.661 402.874 140.661 Z M 427.804 140.401 L 427.804 114.331 L 422.264 114.331 L 422.264 145.261 L 443.404 145.261 L 443.404 140.401 L 427.804 140.401 Z M 369.534 113.891 C 360.284 113.891 353.464 120.651 353.464 129.791 C 353.464 138.931 360.284 145.721 369.534 145.721 C 378.784 145.721 385.604 139.011 385.604 129.811 C 385.604 120.611 378.784 113.891 369.534 113.891 Z M 369.534 140.661 C 363.534 140.661 359.044 136.111 359.044 129.791 C 359.044 123.471 363.524 118.921 369.534 118.921 C 375.544 118.921 380.024 123.471 380.024 129.791 C 380.024 136.111 375.544 140.661 369.534 140.661 Z M 339.484 114.331 L 327.204 114.331 L 327.204 145.261 L 332.744 145.261 L 332.744 136.331 L 339.484 136.331 C 347.324 136.331 352.184 132.141 352.184 125.331 C 352.184 118.521 347.324 114.331 339.484 114.331 Z M 339.224 131.471 L 332.744 131.471 L 332.744 119.191 L 339.224 119.191 C 344.084 119.191 346.604 121.441 346.604 125.331 C 346.604 129.221 344.084 131.471 339.224 131.471 Z" style="fill: url('#linear-gradient-16');"/>
</svg>