<?xml version="1.0" encoding="utf-8"?>
<!-- Generator: Adobe Illustrator 16.0.0, SVG Export Plug-In . SVG Version: 6.00 Build 0)  -->
<!DOCTYPE svg PUBLIC "-//W3C//DTD SVG 1.1//EN" "http://www.w3.org/Graphics/SVG/1.1/DTD/svg11.dtd">
<svg version="1.1" id="Layer_1" xmlns="http://www.w3.org/2000/svg" xmlns:xlink="http://www.w3.org/1999/xlink" x="0px" y="0px"
	 width="250px" height="84px" viewBox="0 0 250 84" enable-background="new 0 0 250 84" xml:space="preserve">
<g>
	<g>
		<g>
			<path fill="#FFFFFF" d="M88.702,50.652V13.51h24.955v6.331H95.922v9.574h14.753v5.859H95.922v15.38h-7.22V50.652z"/>
			<path fill="#FFFFFF" d="M133.277,50.915c-2.616,0-5.007-0.53-7.167-1.597c-2.164-1.062-4.021-2.474-5.573-4.235
				c-1.552-1.761-2.746-3.775-3.582-6.043c-0.838-2.266-1.256-4.585-1.256-6.958c0-2.475,0.443-4.847,1.334-7.114
				c0.89-2.268,2.126-4.271,3.715-6.017c1.585-1.744,3.46-3.13,5.625-4.16c2.159-1.028,4.514-1.543,7.062-1.543
				c2.614,0,5.005,0.55,7.167,1.649s4.011,2.537,5.546,4.315c1.535,1.778,2.721,3.803,3.558,6.068
				c0.84,2.268,1.258,4.57,1.258,6.907c0,2.478-0.445,4.838-1.336,7.09c-0.891,2.248-2.117,4.236-3.688,5.961
				c-1.57,1.727-3.436,3.107-5.6,4.136S135.822,50.915,133.277,50.915z M122.969,32.082c0,1.604,0.236,3.157,0.708,4.656
				c0.47,1.5,1.149,2.827,2.04,3.977c0.89,1.15,1.979,2.074,3.27,2.771c1.292,0.697,2.755,1.045,4.395,1.045
				c1.674,0,3.147-0.356,4.422-1.071c1.271-0.713,2.347-1.664,3.218-2.851c0.87-1.186,1.534-2.52,1.987-4.002
				c0.453-1.481,0.681-2.988,0.681-4.525c0-1.604-0.244-3.155-0.731-4.656c-0.49-1.499-1.178-2.825-2.065-3.975
				c-0.892-1.152-1.972-2.067-3.246-2.748c-1.271-0.679-2.711-1.019-4.313-1.019c-1.674,0-3.147,0.357-4.422,1.072
				c-1.273,0.716-2.354,1.657-3.244,2.826c-0.888,1.168-1.562,2.494-2.014,3.975C123.198,29.04,122.969,30.548,122.969,32.082z"/>
			<path fill="#FFFFFF" d="M156.558,50.652V13.51h7.22v30.814h18.938v6.328H156.558z"/>
			<path fill="#FFFFFF" d="M213.164,44.324v6.328h-25.795V13.51h25.322v6.331h-18.104v8.946h15.646v5.859h-15.646v9.678H213.164z"/>
			<path fill="#FFFFFF" d="M222.737,13.51l9.261,13.812l9.207-13.812H249l-13.238,18.834l12.818,18.311h-7.796l-8.788-13.288
				l-8.842,13.288h-7.848l12.818-18.311l-13.238-18.833L222.737,13.51L222.737,13.51z"/>
		</g>
		<g>
			<path fill="#FFFFFF" d="M95.238,62.547h-2.885v7.471h-1.371v-7.471h-2.898v-1.211h7.154V62.547z"/>
			<path fill="#FFFFFF" d="M104.021,61.336v8.682h-1.383v-3.824h-4.378v3.824h-1.37v-8.682h1.37v3.631h4.378v-3.631H104.021z"/>
			<path fill="#FFFFFF" d="M112.396,68.809v1.209h-5.956v-8.682h5.845v1.211h-4.474v2.471h3.875v1.139h-3.875v2.652H112.396z"/>
			<path fill="#FFFFFF" d="M117.792,70.018v-8.682h5.784v1.211h-4.416v2.592h3.694v1.139h-3.694v3.74H117.792z"/>
			<path fill="#FFFFFF" d="M128.907,68.846c0.456,0,0.837-0.092,1.138-0.27c0.301-0.18,0.545-0.416,0.728-0.705
				c0.185-0.287,0.313-0.619,0.392-0.988c0.078-0.371,0.117-0.754,0.117-1.145v-4.402h1.381v4.402c0,0.596-0.068,1.152-0.207,1.682
				c-0.138,0.527-0.359,0.986-0.66,1.381c-0.302,0.396-0.691,0.709-1.168,0.938c-0.478,0.229-1.051,0.344-1.719,0.344
				c-0.693,0-1.277-0.123-1.756-0.361c-0.477-0.24-0.861-0.564-1.152-0.967c-0.297-0.404-0.508-0.867-0.638-1.389
				c-0.133-0.523-0.196-1.064-0.196-1.627v-4.4h1.371v4.4c0,0.398,0.037,0.783,0.115,1.154s0.207,0.705,0.391,0.992
				c0.185,0.289,0.43,0.521,0.733,0.695C128.082,68.756,128.459,68.846,128.907,68.846z"/>
			<path fill="#FFFFFF" d="M141.309,62.547h-2.887v7.471h-1.371v-7.471h-2.897v-1.211h7.155V62.547z"/>
			<path fill="#FFFFFF" d="M146.567,68.846c0.457,0,0.835-0.092,1.138-0.27c0.301-0.18,0.545-0.416,0.729-0.705
				c0.184-0.287,0.313-0.619,0.392-0.988c0.075-0.371,0.115-0.754,0.115-1.145v-4.402h1.382v4.402c0,0.596-0.067,1.152-0.209,1.682
				c-0.14,0.527-0.356,0.986-0.659,1.381c-0.303,0.396-0.691,0.709-1.169,0.938c-0.477,0.229-1.05,0.344-1.718,0.344
				c-0.693,0-1.277-0.123-1.755-0.361c-0.478-0.24-0.864-0.564-1.156-0.967c-0.293-0.404-0.506-0.867-0.636-1.389
				c-0.13-0.523-0.194-1.064-0.194-1.627v-4.4h1.368v4.4c0,0.398,0.038,0.783,0.116,1.154c0.077,0.371,0.208,0.705,0.392,0.992
				c0.184,0.289,0.428,0.521,0.733,0.695C145.742,68.756,146.121,68.846,146.567,68.846z"/>
			<path fill="#FFFFFF" d="M152.598,70.018v-8.682h3.775c0.393,0,0.754,0.082,1.084,0.244c0.33,0.164,0.614,0.375,0.851,0.641
				c0.237,0.268,0.421,0.568,0.558,0.904c0.135,0.342,0.2,0.686,0.2,1.035c0,0.293-0.041,0.576-0.122,0.844
				c-0.082,0.27-0.193,0.518-0.342,0.746c-0.146,0.229-0.325,0.428-0.538,0.594c-0.212,0.168-0.444,0.291-0.698,0.371l2.067,3.305
				h-1.554l-1.906-3.021h-2.008v3.021h-1.367V70.018z M153.965,65.787h2.398c0.193,0,0.372-0.041,0.53-0.129
				c0.159-0.086,0.296-0.205,0.409-0.355c0.115-0.148,0.203-0.322,0.271-0.52c0.064-0.193,0.096-0.402,0.096-0.623
				s-0.037-0.428-0.115-0.623c-0.076-0.197-0.178-0.367-0.305-0.514s-0.273-0.266-0.44-0.352c-0.166-0.084-0.341-0.125-0.521-0.125
				h-2.324V65.787z"/>
			<path fill="#FFFFFF" d="M167.199,68.809v1.209h-5.956v-8.682h5.847v1.211h-4.478v2.471h3.878v1.139h-3.878v2.652H167.199z"/>
			<path fill="#FFFFFF" d="M176.162,70.08c-0.611,0-1.166-0.127-1.668-0.375c-0.502-0.246-0.935-0.578-1.298-0.988
				c-0.36-0.412-0.642-0.883-0.838-1.412c-0.194-0.531-0.292-1.07-0.292-1.627c0-0.578,0.104-1.133,0.313-1.664
				c0.209-0.529,0.494-1,0.861-1.408c0.366-0.404,0.803-0.73,1.311-0.971c0.502-0.242,1.055-0.359,1.649-0.359
				c0.612,0,1.166,0.127,1.671,0.385c0.499,0.254,0.932,0.592,1.288,1.01c0.356,0.416,0.638,0.885,0.831,1.414
				c0.196,0.523,0.295,1.061,0.295,1.604c0,0.578-0.104,1.135-0.313,1.664c-0.207,0.531-0.496,0.998-0.862,1.402
				c-0.366,0.4-0.801,0.725-1.302,0.965C177.305,69.957,176.758,70.08,176.162,70.08z M173.461,65.678
				c0,0.408,0.063,0.803,0.189,1.186c0.127,0.385,0.307,0.721,0.544,1.018c0.235,0.291,0.521,0.525,0.854,0.699
				c0.334,0.178,0.709,0.266,1.127,0.266c0.424,0,0.805-0.092,1.144-0.273c0.337-0.186,0.622-0.426,0.854-0.73
				c0.232-0.303,0.41-0.639,0.533-1.014c0.123-0.377,0.184-0.758,0.184-1.15c0-0.414-0.065-0.813-0.197-1.193
				c-0.129-0.377-0.313-0.709-0.549-1c-0.236-0.293-0.521-0.523-0.855-0.697c-0.334-0.176-0.707-0.266-1.113-0.266
				c-0.424,0-0.805,0.092-1.143,0.275c-0.341,0.186-0.625,0.422-0.857,0.715c-0.231,0.295-0.408,0.633-0.531,1.012
				C173.522,64.898,173.461,65.285,173.461,65.678z"/>
			<path fill="#FFFFFF" d="M182.18,70.018v-8.682h5.785v1.211h-4.416v2.592h3.694v1.139h-3.694v3.74H182.18z"/>
			<path fill="#FFFFFF" d="M198.922,62.547h-2.888v7.471h-1.366v-7.471h-2.899v-1.211h7.153V62.547z"/>
			<path fill="#FFFFFF" d="M200.574,70.018v-8.682h3.778c0.392,0,0.752,0.082,1.083,0.244c0.331,0.164,0.613,0.375,0.851,0.641
				c0.235,0.268,0.421,0.568,0.556,0.904c0.135,0.342,0.201,0.686,0.201,1.035c0,0.293-0.041,0.576-0.121,0.844
				c-0.082,0.27-0.195,0.518-0.342,0.746c-0.148,0.229-0.326,0.428-0.539,0.594c-0.214,0.168-0.445,0.291-0.697,0.371l2.066,3.305
				h-1.552l-1.908-3.021h-2.007v3.021h-1.369V70.018z M201.943,65.787h2.396c0.195,0,0.373-0.041,0.531-0.129
				c0.159-0.086,0.297-0.205,0.411-0.355c0.111-0.148,0.202-0.322,0.269-0.52c0.064-0.193,0.098-0.402,0.098-0.623
				s-0.039-0.428-0.115-0.623c-0.078-0.197-0.178-0.367-0.306-0.514s-0.275-0.266-0.441-0.352c-0.167-0.084-0.341-0.125-0.521-0.125
				h-2.322V65.787z"/>
			<path fill="#FFFFFF" d="M208.268,70.018l3.496-8.682h1.125l3.484,8.682h-1.455l-0.929-2.359h-3.353l-0.904,2.359H208.268z
				 M212.326,62.863l-1.441,3.779h2.836L212.326,62.863z"/>
			<path fill="#FFFFFF" d="M217.891,70.018v-8.682h3.082c0.701,0,1.314,0.111,1.842,0.34c0.525,0.229,0.964,0.541,1.318,0.93
				c0.356,0.395,0.621,0.852,0.802,1.379c0.181,0.523,0.271,1.086,0.271,1.68c0,0.66-0.1,1.26-0.3,1.793
				c-0.2,0.535-0.483,0.99-0.853,1.369c-0.364,0.381-0.81,0.672-1.332,0.881c-0.521,0.207-1.104,0.313-1.748,0.313h-3.082V70.018z
				 M223.81,65.664c0-0.457-0.062-0.875-0.188-1.26c-0.127-0.383-0.313-0.709-0.559-0.982c-0.244-0.273-0.54-0.49-0.891-0.643
				c-0.352-0.156-0.754-0.232-1.201-0.232h-1.711v6.262h1.711c0.457,0,0.863-0.078,1.218-0.238s0.653-0.381,0.894-0.66
				c0.239-0.283,0.422-0.615,0.545-0.996C223.75,66.529,223.81,66.113,223.81,65.664z"/>
			<path fill="#FFFFFF" d="M227.137,70.018v-8.672h1.371v8.672H227.137z"/>
			<path fill="#FFFFFF" d="M232.297,63.904v6.113h-1.369v-8.682h1.074l4.967,6.26v-6.25h1.382v8.672h-1.138L232.297,63.904z"/>
			<path fill="#FFFFFF" d="M246.764,68.941c-0.707,0.758-1.534,1.141-2.481,1.141c-0.563,0-1.09-0.127-1.583-0.375
				c-0.492-0.248-0.923-0.578-1.283-0.99c-0.363-0.412-0.648-0.885-0.856-1.418c-0.207-0.535-0.313-1.086-0.313-1.658
				c0-0.588,0.105-1.145,0.313-1.678c0.208-0.525,0.493-0.992,0.856-1.391c0.36-0.4,0.791-0.719,1.291-0.949
				c0.496-0.23,1.036-0.348,1.625-0.348c0.815,0,1.502,0.174,2.055,0.518c0.556,0.348,0.975,0.807,1.26,1.379l-1.051,0.758
				c-0.238-0.473-0.559-0.826-0.959-1.064c-0.405-0.234-0.853-0.354-1.342-0.354c-0.399,0-0.762,0.088-1.088,0.264
				s-0.605,0.406-0.838,0.695c-0.23,0.289-0.41,0.627-0.537,1.012c-0.127,0.381-0.19,0.781-0.19,1.195
				c0,0.439,0.069,0.854,0.208,1.236c0.139,0.381,0.333,0.717,0.58,1.004c0.25,0.281,0.539,0.51,0.875,0.676
				c0.334,0.168,0.697,0.252,1.089,0.252c0.883,0,1.672-0.428,2.372-1.283v-0.916h-1.821v-1.02h2.972v4.393h-1.149v-1.078H246.764z"
				/>
		</g>
	</g>
	
		<linearGradient id="Union_5_1_" gradientUnits="userSpaceOnUse" x1="-149.1499" y1="316.9873" x2="-149.2499" y2="316.9866" gradientTransform="matrix(740.1266 0 0 -772.353 110468.4219 244868.5938)">
		<stop  offset="0" style="stop-color:#F08D2F"/>
		<stop  offset="1" style="stop-color:#EA523A"/>
	</linearGradient>
	<path id="Union_5" fill="url(#Union_5_1_)" d="M36.683,81.16c-0.561,0-1.218-1.015-1.218-1.015l-2.231-4.525L5.436,58.447
		l-0.011-0.008c-0.19-0.146-0.406-0.311-0.482-0.618c-0.089-0.358,0.025-0.846,0.349-1.49l6.106-14.667l-0.57-38.161
		c-0.034-0.176,0.013-0.358,0.128-0.496c0.118-0.141,0.291-0.222,0.474-0.224c0.129,0,0.254,0.043,0.357,0.12l23.11,23.256h15.081
		L73.09,2.903c0.104-0.077,0.229-0.119,0.358-0.12c0.183,0.001,0.355,0.083,0.474,0.223c0.115,0.138,0.163,0.319,0.127,0.496
		l-0.575,38.475l6.236,14.354c0.127,0.277,0.221,0.567,0.277,0.867c0.047,0.232,0.045,0.472-0.006,0.704
		c-0.053,0.233-0.205,0.432-0.415,0.545L51.684,75.739l-2.113,4.406c0,0-0.758,1.015-1.319,1.015H36.683z M41.734,34.766
		c-0.007,0.004-11.167,4.371-15.964,6.248l-0.273,0.105c-0.128,0.075-0.217,0.204-0.243,0.349c-0.028,0.151-0.025,0.305,0.007,0.457
		c0.038,0.194,0.099,0.383,0.18,0.563l14.522,32.457h5.059l14.524-32.457c0.051-0.113,0.092-0.229,0.123-0.349
		c0.065-0.211,0.068-0.438,0.006-0.649c-0.051-0.138-0.159-0.245-0.295-0.296l-16.279-6.428c-0.201-0.102-0.423-0.155-0.649-0.152
		C42.205,34.615,41.96,34.667,41.734,34.766L41.734,34.766z M65.554,44.222l-9.438,20.422c-0.001,0.005-0.169,0.505-0.027,0.703
		c0.041,0.055,0.105,0.085,0.172,0.081c0.148-0.015,0.29-0.066,0.413-0.148c0.953-0.551,14.526-9.049,14.664-9.133
		c0.239-0.159,0.443-0.364,0.603-0.603c0.144-0.215,0.233-0.462,0.261-0.718c0.026-0.334-0.045-0.668-0.204-0.964
		c-0.332-0.655-0.758-1.753-1.252-3.023c-0.6-1.545-1.28-3.296-2.021-4.866c-0.769-1.628-1.682-1.97-2.312-1.97
		C66.111,44.001,65.816,44.076,65.554,44.222z M16.183,45.973c-0.741,1.568-1.421,3.321-2.021,4.864
		c-0.494,1.272-0.92,2.37-1.251,3.025c-0.159,0.294-0.229,0.63-0.204,0.962c0.027,0.258,0.117,0.503,0.261,0.719
		c0.159,0.239,0.364,0.442,0.603,0.602c0.137,0.086,13.711,8.582,14.664,9.133c0.124,0.083,0.265,0.134,0.413,0.15
		c0.068,0.002,0.133-0.028,0.173-0.081c0.142-0.2-0.026-0.698-0.027-0.703l-9.438-20.422c-0.263-0.147-0.559-0.223-0.859-0.221
		C17.865,44.003,16.953,44.345,16.183,45.973z M66.862,20.151L53.919,31.929c-0.171,0.146-0.192,0.402-0.047,0.573
		c0.041,0.048,0.093,0.085,0.151,0.111l12.916,5.049c0.206,0.087,0.445-0.008,0.533-0.215c0.024-0.059,0.035-0.122,0.031-0.185
		l0.026-16.828c-0.013-0.215-0.192-0.383-0.407-0.38C67.026,20.055,66.934,20.089,66.862,20.151L66.862,20.151z M17.349,20.434
		l0.026,16.828c-0.008,0.111,0.031,0.221,0.107,0.303c0.077,0.083,0.185,0.13,0.297,0.13c0.055,0,0.108-0.011,0.159-0.033
		l12.916-5.048c0.207-0.089,0.303-0.327,0.215-0.533c-0.025-0.059-0.063-0.11-0.111-0.151L18.016,20.151
		c-0.072-0.063-0.165-0.096-0.26-0.096C17.541,20.053,17.361,20.22,17.349,20.434L17.349,20.434z"/>
</g>
</svg>
