<svg id="Layer_1" data-name="Layer 1" xmlns="http://www.w3.org/2000/svg" xmlns:xlink="http://www.w3.org/1999/xlink" viewBox="0 0 1244.32 471.64"><defs><style>.cls-1{fill:url(#linear-gradient);}.cls-2{fill:url(#linear-gradient-2);}.cls-3{font-size:243.63px;}.cls-3,.cls-5{font-family:Arial-BoldMT, Arial;font-weight:700;}.cls-4{fill:url(#linear-gradient-3);}.cls-5{font-size:201px;letter-spacing:0.08em;}.cls-6{fill:url(#linear-gradient-8);}</style><linearGradient id="linear-gradient" x1="65.4" y1="376.63" x2="460.01" y2="307.05" gradientUnits="userSpaceOnUse"><stop offset="0" stop-color="#eb5b38"/><stop offset="0.79" stop-color="#ef8b2c"/></linearGradient><linearGradient id="linear-gradient-2" x1="464.57" y1="352.25" x2="75.37" y2="352.25" gradientUnits="userSpaceOnUse"><stop offset="0.21" stop-color="#f3903f"/><stop offset="0.89" stop-color="#ed683c"/><stop offset="1" stop-color="#e93e3a"/></linearGradient><linearGradient id="linear-gradient-3" x1="611.02" y1="22.82" x2="1175.74" y2="480.12" gradientUnits="userSpaceOnUse"><stop offset="0" stop-color="#f3903f"/><stop offset="0.61" stop-color="#ed683c"/><stop offset="1" stop-color="#e93e3a"/></linearGradient><linearGradient id="linear-gradient-8" x1="613.45" y1="237.82" x2="1153.26" y2="674.94" xlink:href="#linear-gradient-3"/></defs><path class="cls-1" d="M431.66,305.4c-.05,13.06-1,26.12-.91,39.19a38.53,38.53,0,0,0,3,14.31c9.31,22.18,19,44.18,28.59,66.26,3.76,8.7,3.26,10.06-4.76,15-43.21,26.85-86.31,53.86-129.71,80.38A38.88,38.88,0,0,0,312,538.75c-9.17,20.31-7.49,16-25.17,16.29-14.34.21-28.68-.15-43,.18-5.15.12-8.23-2-10.43-6.19a6.44,6.44,0,0,1-.52-1.13c-5.11-16.49-17.13-26-31.55-34.62-40.33-23.95-80-49-119.9-73.67-6.76-4.17-7.3-5.85-4.26-13.1,8.63-20.65,16.93-41.44,26.06-61.87a67.21,67.21,0,0,0,5.72-30.74c-.64-17-.57-34-.87-51.08-.73-41.11-1.55-82.22-2.15-123.33-.05-3.4,1.28-6.83,2-10.24,2.79,1.88,6,3.35,8.3,5.69,32.29,32.35,65.16,64.17,96.31,97.58,12.56,13.47,25.2,19.78,43.57,18,16.05-1.58,32.38-.16,48.58-.45a12.8,12.8,0,0,0,8.08-3.3q56.91-56.81,113.56-113.86c1.46-1.47,3.64-2.22,5.48-3.3.53,2.1,1.47,4.19,1.5,6.29.15,11,.07,22,.07,33ZM267.29,524.16c4.47,0,8.16-.23,11,0,3.91.27,5.83-1.51,7.42-5.06Q322,437.85,358.5,356.72c3.09-6.89,2.49-8.13-4.78-11-25.84-10.17-51.72-20.24-77.5-30.58a15.51,15.51,0,0,0-12.47-.12c-25.4,10.16-50.9,20.05-76.36,30.05-8.5,3.34-8.71,3.8-5,12.16,23.1,51.67,46.41,103.25,69.13,155.09C255.36,521,256.79,525.22,267.29,524.16Zm72.93-50.87,1.59,1.11c1.79-.89,3.66-1.65,5.35-2.7q35.65-22.14,71.25-44.38c6.52-4.08,8.06-7.57,5.78-13.22-5.42-13.44-10.85-26.87-16.6-40.16a27.59,27.59,0,0,0-6.34-9.05c-5.46-5.08-10.52-3.84-13.67,3q-22.83,49.32-45.5,98.7C341.12,468.65,340.83,471,340.22,473.29Zm-139.89,1.89c-1.23-4.24-1.63-6.81-2.68-9.08q-22.31-48.56-44.78-97c-4-8.64-10.5-9.34-16.4-1.59a39.79,39.79,0,0,0-4.82,8.65c-5,11.84-9.66,23.79-14.6,35.64-3.24,7.8-2.43,10.88,4.91,15.47q35.33,22.13,70.73,44.13C194.53,472.51,196.58,473.32,200.33,475.18ZM327.39,302c2.74,1.44,4.28,2.44,5.94,3.1q30.06,11.85,60.16,23.6c6,2.35,7.52,1.45,7.55-5q.15-39.87,0-79.75c0-1.9-1.08-3.79-1.65-5.69-1.93.89-4.24,1.37-5.74,2.73q-30.75,27.75-61.28,55.73C330.86,298.1,329.58,299.67,327.39,302Zm-115.17.36a51.8,51.8,0,0,0-3.91-4.7q-31.27-28.56-62.67-57c-1.26-1.13-3.18-1.52-4.8-2.25-.59,1.86-1.7,3.71-1.71,5.58q-.16,39.57-.06,79.14c0,7.17,1,7.83,7.58,5.26q29.53-11.51,59-23.14C207.53,304.54,209.33,303.66,212.22,302.37Z" transform="translate(-75.37 -128.35)"/><path class="cls-2" d="M431.66,305.4c-.05,13.06-1,26.12-.91,39.19a38.53,38.53,0,0,0,3,14.31c9.31,22.18,19,44.18,28.59,66.26,3.76,8.7,3.26,10.06-4.76,15-43.21,26.85-86.31,53.86-129.71,80.38A38.88,38.88,0,0,0,312,538.75c-9.17,20.31-7.49,16-25.17,16.29-14.34.21-28.68-.15-43,.18-5.15.12-8.23-2-10.43-6.19a6.44,6.44,0,0,1-.52-1.13c-5.11-16.49-17.13-26-31.55-34.62-40.33-23.95-80-49-119.9-73.67-6.76-4.17-7.3-5.85-4.26-13.1,8.63-20.65,16.93-41.44,26.06-61.87a67.21,67.21,0,0,0,5.72-30.74c-.64-17-.57-34-.87-51.08-.73-41.11-1.55-82.22-2.15-123.33-.05-3.4,1.28-6.83,2-10.24,2.79,1.88,6,3.35,8.3,5.69,32.29,32.35,65.16,64.17,96.31,97.58,12.56,13.47,25.2,19.78,43.57,18,16.05-1.58,32.38-.16,48.58-.45a12.8,12.8,0,0,0,8.08-3.3q56.91-56.81,113.56-113.86c1.46-1.47,3.64-2.22,5.48-3.3.53,2.1,1.47,4.19,1.5,6.29.15,11,.07,22,.07,33ZM267.29,524.16c4.47,0,8.16-.23,11,0,3.91.27,5.83-1.51,7.42-5.06Q322,437.85,358.5,356.72c3.09-6.89,2.49-8.13-4.78-11-25.84-10.17-51.72-20.24-77.5-30.58a15.51,15.51,0,0,0-12.47-.12c-25.4,10.16-50.9,20.05-76.36,30.05-8.5,3.34-8.71,3.8-5,12.16,23.1,51.67,46.41,103.25,69.13,155.09C255.36,521,256.79,525.22,267.29,524.16Zm72.93-50.87,1.59,1.11c1.79-.89,3.66-1.65,5.35-2.7q35.65-22.14,71.25-44.38c6.52-4.08,8.06-7.57,5.78-13.22-5.42-13.44-10.85-26.87-16.6-40.16a27.59,27.59,0,0,0-6.34-9.05c-5.46-5.08-10.52-3.84-13.67,3q-22.83,49.32-45.5,98.7C341.12,468.65,340.83,471,340.22,473.29Zm-139.89,1.89c-1.23-4.24-1.63-6.81-2.68-9.08q-22.31-48.56-44.78-97c-4-8.64-10.5-9.34-16.4-1.59a39.79,39.79,0,0,0-4.82,8.65c-5,11.84-9.66,23.79-14.6,35.64-3.24,7.8-2.43,10.88,4.91,15.47q35.33,22.13,70.73,44.13C194.53,472.51,196.58,473.32,200.33,475.18ZM327.39,302c2.74,1.44,4.28,2.44,5.94,3.1q30.06,11.85,60.16,23.6c6,2.35,7.52,1.45,7.55-5q.15-39.87,0-79.75c0-1.9-1.08-3.79-1.65-5.69-1.93.89-4.24,1.37-5.74,2.73q-30.75,27.75-61.28,55.73C330.86,298.1,329.58,299.67,327.39,302Zm-115.17.36a51.8,51.8,0,0,0-3.91-4.7q-31.27-28.56-62.67-57c-1.26-1.13-3.18-1.52-4.8-2.25-.59,1.86-1.7,3.71-1.71,5.58q-.16,39.57-.06,79.14c0,7.17,1,7.83,7.58,5.26q29.53-11.51,59-23.14C207.53,304.54,209.33,303.66,212.22,302.37Z" transform="translate(-75.37 -128.35)"/><text class="cls-3" transform="translate(404.2 209.01)">FOLEX</text><path class="cls-4" d="M497.53,337.36V163H617.09v29.51H532.74v41.28h72.81v29.5H532.74v74.11Z" transform="translate(-75.37 -128.35)"/><path class="cls-4" d="M639,251.23q0-26.64,8-44.73a82.22,82.22,0,0,1,16.24-23.91,68,68,0,0,1,22.55-15.7Q702,160,723.32,160q38.53,0,61.68,23.91t23.14,66.5q0,42.22-23,66.08t-61.39,23.85q-38.89,0-61.86-23.73T639,251.23ZM675.26,250q0,29.63,13.68,44.91t34.73,15.29q21.06,0,34.56-15.17t13.5-45.5q0-30-13.14-44.73t-34.92-14.75q-21.76,0-35.09,14.93T675.26,250Z" transform="translate(-75.37 -128.35)"/><path class="cls-4" d="M836.57,337.36v-173h35.21V308h87.56v29.38Z" transform="translate(-75.37 -128.35)"/><path class="cls-4" d="M984.44,337.36V163h129.31v29.51h-94.1v38.66h87.55v29.38h-87.55V308h97.43v29.38Z" transform="translate(-75.37 -128.35)"/><path class="cls-4" d="M1129.21,337.36l59.6-91-54-83.4H1176l35,56,34.26-56H1286l-54.25,84.7,59.6,89.7h-42.47l-38.66-60.31-38.78,60.31Z" transform="translate(-75.37 -128.35)"/><text class="cls-5" transform="translate(408.07 395.97) scale(1.02 1)">MINING</text><path class="cls-6" d="M498,524.32V380.44h44.35l26.63,98.14,26.32-98.14h44.45V524.32H612.18V411.06L583.05,524.32H554.52l-29-113.26V524.32Z" transform="translate(-75.37 -128.35)"/><path class="cls-6" d="M684.23,524.32V380.44h29.63V524.32Z" transform="translate(-75.37 -128.35)"/><path class="cls-6" d="M758.39,524.32V380.44h28.83l60.06,96.08V380.44h27.53V524.32H845.08l-59.16-93.83v93.83Z" transform="translate(-75.37 -128.35)"/><path class="cls-6" d="M921.24,524.32V380.44h29.63V524.32Z" transform="translate(-75.37 -128.35)"/><path class="cls-6" d="M995.39,524.32V380.44h28.83l60.07,96.08V380.44h27.53V524.32h-29.74l-59.16-93.83v93.83Z" transform="translate(-75.37 -128.35)"/><path class="cls-6" d="M1227.41,471.42V447.18h63.87v57.31q-9.3,8.84-27,15.56a100,100,0,0,1-35.79,6.72q-23,0-40.14-9.47a60.69,60.69,0,0,1-25.73-27.09,86.07,86.07,0,0,1-8.6-38.32q0-22.49,9.61-39.95a64.15,64.15,0,0,1,28.13-26.79q14.12-7.17,35.13-7.17,27.33,0,42.7,11.24t19.77,31.06l-29.43,5.4A30.51,30.51,0,0,0,1248.29,409q-8.57-6.13-21.38-6.14-19.41,0-30.88,12.08t-11.46,35.82q0,25.62,11.61,38.42t30.43,12.81a51.87,51.87,0,0,0,18.67-3.58,64.17,64.17,0,0,0,16.07-8.69V471.42Z" transform="translate(-75.37 -128.35)"/></svg>