<?xml version="1.0" encoding="utf-8"?>
<!-- Generator: Adobe Illustrator 24.2.3, SVG Export Plug-In . SVG Version: 6.00 Build 0)  -->
<svg version="1.1" id="Layer_1" xmlns="http://www.w3.org/2000/svg" xmlns:xlink="http://www.w3.org/1999/xlink" x="0px" y="0px"
	 viewBox="0 0 384 433" style="enable-background:new 0 0 384 433;" xml:space="preserve">
<style type="text/css">
	.st0{opacity:0.5;fill:#C45400;enable-background:new    ;}
	.st1{fill:url(#SVGID_1_);}
	.st2{fill:url(#SVGID_2_);}
	.st3{fill:url(#SVGID_3_);}
	.st4{fill:url(#SVGID_4_);}
	.st5{fill:url(#SVGID_5_);}
	.st6{fill:url(#SVGID_6_);}
	.st7{fill:url(#SVGID_7_);}
	.st8{fill:url(#SVGID_8_);}
	.st9{fill:url(#SVGID_9_);}
	.st10{fill:url(#SVGID_10_);}
	.st11{fill:url(#SVGID_11_);}
	.st12{fill:url(#SVGID_12_);}
	.st13{fill:url(#SVGID_13_);}
	.st14{fill:url(#SVGID_14_);}
	.st15{fill:url(#SVGID_15_);}
	.st16{fill:url(#SVGID_16_);}
	.st17{fill:url(#SVGID_17_);}
	.st18{fill:url(#SVGID_18_);}
	.st19{fill:url(#SVGID_19_);}
	.st20{fill:url(#SVGID_20_);}
	.st21{fill:url(#SVGID_21_);}
	.st22{fill:url(#SVGID_22_);}
	.st23{fill:url(#SVGID_23_);}
	.st24{fill:url(#SVGID_24_);}
	.st25{fill:url(#SVGID_25_);}
	.st26{fill:url(#SVGID_26_);}
	.st27{fill:url(#SVGID_27_);}
	.st28{fill:url(#SVGID_28_);}
	.st29{fill:url(#SVGID_29_);}
	.st30{fill:url(#SVGID_30_);}
	.st31{fill:url(#SVGID_31_);}
	.st32{fill:url(#SVGID_32_);}
	.st33{fill:url(#SVGID_33_);}
	.st34{fill:url(#SVGID_34_);}
	.st35{fill:url(#SVGID_35_);}
	.st36{fill:url(#SVGID_36_);}
	.st37{fill:#FFFFFF;}
</style>
<g id="_x23_0b6a8080">
	<path class="st0" d="M188.8,0h6.5c5,0.6,9.9,1.9,14.4,4.2c14.5,7.3,23,24.8,19.5,40.7c-3.2,17.2-19.7,30.6-37.2,30
		c-17.5,0.1-33.8-13.7-36.4-31c-2.4-13,2.8-27,13-35.3C174.3,3.8,181.5,1.1,188.8,0 M186.4,7.6c-4.7,1-9.2,3-13,6
		c-11.4,8.8-14.9,26.1-7.7,38.6c6.9,13.2,24.3,19.5,38.1,13.6c14.6-5.5,22.9-23.2,17.6-37.9C217,13.6,201.1,4.3,186.4,7.6z"/>
	<path class="st0" d="M15.3,99.3c9.5-7.1,22.5-9.2,33.8-5.5c9.5,3,17.6,10.1,22.1,19.1c7.2,13.9,4.2,32.2-7.1,43.1
		c-11.2,11.7-30.3,14.5-44.4,6.5C8.7,156.7,1.5,145.2,0,133.1v-6.9C1.3,115.6,6.6,105.5,15.3,99.3 M31.4,99.6
		c-4.2,0.9-8.2,2.6-11.7,5.1C7.8,113,3.5,130.1,10.1,143c6.4,13.7,23.8,20.7,37.9,15.1c14.9-5,23.6-22.7,18.6-37.6
		C62.5,105.9,46.3,96.2,31.4,99.6z"/>
	<path class="st0" d="M335.5,94.7c17.7-3.8,36.8,7.4,42.4,24.5c5.9,16-1,35.3-15.6,44.1c-9.2,5.8-21,7.3-31.3,3.9
		c-8.4-2.7-15.7-8.4-20.3-15.8c-6.9-10.7-7.5-25.1-1.9-36.4C313.9,104.5,324.1,96.8,335.5,94.7 M336.5,101.6
		c-5.4,1.1-10.5,3.6-14.5,7.4c-10.9,9.5-13.2,27.1-5.1,39.1c7.6,12.3,24.6,17.5,37.7,11.4c14.2-5.8,22-23.2,16.8-37.6
		C367,107.6,351.1,98.3,336.5,101.6z"/>
	<path class="st0" d="M15.3,279.3c9.5-7.1,22.4-9.2,33.7-5.5c10.3,3.3,18.9,11.2,23,21.1c6.3,14.3,2.2,32.3-9.6,42.5
		c-11.9,11-31.2,12.7-44.8,3.9c-9.9-6-16.3-16.9-17.7-28.3V306C1.3,295.5,6.7,285.5,15.3,279.3 M31.4,279.6
		c-5.3,1.1-10.4,3.6-14.4,7.3c-10.9,9.6-13.2,27.1-5,39.1c7.6,12.3,24.5,17.4,37.6,11.4c14.3-5.7,22.1-23.2,16.9-37.7
		C62,285.5,46,276.3,31.4,279.6z"/>
	<path class="st0" d="M319.9,283.1c11.6-12.1,31.6-14.6,45.8-5.8c10.2,6,16.8,16.9,18.3,28.5v7c-1.2,10.5-6.6,20.6-15.3,26.8
		c-9.7,7.3-23.1,9.3-34.5,5.2c-9.7-3.3-17.9-10.8-22-20.2C305.9,311,309.1,293.6,319.9,283.1 M340.4,279.6
		c-5.4,1.1-10.4,3.6-14.5,7.4c-10.8,9.5-13.2,27-5.1,39c7.4,12.1,23.9,17.4,37,11.8c14.6-5.5,22.9-23.2,17.6-37.9
		C371,285.6,355,276.3,340.4,279.6z"/>
	<path class="st0" d="M179.6,360.7c14.7-6.2,32.9-1.5,42.8,10.9c10.9,12.7,11.5,32.8,1.3,46.1c-6.3,8.8-16.6,14.3-27.3,15.3H190
		c-10.7-1.3-21-6.9-27.1-15.9c-6.8-9.4-8.6-22.1-5-33.1C161.2,373.5,169.4,364.7,179.6,360.7 M187.4,365.6
		c-3.9,0.8-7.8,2.4-11.1,4.7c-12.1,7.9-16.9,25-10.5,38c6.1,14.1,23.8,21.5,38.2,15.8c15.1-5.1,23.9-23.3,18.4-38.3
		C218,371.6,202,362.3,187.4,365.6z"/>
</g>
<g id="_x23_16d5ffff">
	<linearGradient id="SVGID_1_" gradientUnits="userSpaceOnUse" x1="162.0303" y1="37.4806" x2="223.0381" y2="37.4806">
		<stop  offset="0" style="stop-color:#EA5B38"/>
		<stop  offset="0.7895" style="stop-color:#EE8A2C"/>
	</linearGradient>
	<path class="st1" d="M186.4,7.6c14.6-3.3,30.6,6,35,20.3c5.3,14.7-3,32.5-17.6,37.9c-13.8,5.9-31.1-0.4-38.1-13.6
		c-7.2-12.5-3.7-29.8,7.7-38.6C177.2,10.6,181.7,8.6,186.4,7.6 M183.1,21.2c-0.2,0.3-0.6,0.8-0.8,1c-0.5,7.6-0.5,15.4,0.2,23
		c2.1,0,4.1,0,6.2,0.1l-0.1-1.2c-1.6-1.2-3.1-2.5-4.7-3.8c0-4.9,0-9.8,0-14.7c0.5-0.2,1.4-0.7,1.9-0.9c0.2-0.5,0.7-1.5,0.9-1.9
		c1.8,0,3.5,0.1,5.3,0.1c1,1,2,2,3.1,3c0,6.5,0.1,12.9-0.1,19.4c-1.6-2.4-1.4-6.6-4.8-7.3c-0.2,5.9,0.6,12,3.9,17c2.3,0,4.7,0,7,0
		c0.4-4.7,1.5-9.3,1.8-13.9c-1.6-2.6-4.3-4.3-5.9-6.9c-0.8-4.2,0.9-8.9-1-12.8C191.7,20.8,187.3,20.8,183.1,21.2 M189.3,25.3
		c-1.6,0.4-0.9,3,0.7,2.5C191.6,27.5,190.9,24.8,189.3,25.3 M185.1,32c-1,2.5,1.3,4.4,2.7,6.1c0.6-0.5,1.7-1.4,2.3-1.9
		c0.8,0.1,2.4,0.2,3.3,0.3c0.2-2.1,1.2-4.6-0.6-6.3C190.6,27.5,185.8,28.6,185.1,32z"/>
	<linearGradient id="SVGID_2_" gradientUnits="userSpaceOnUse" x1="186.28" y1="33.37" x2="192.2919" y2="33.37">
		<stop  offset="0" style="stop-color:#EA5B38"/>
		<stop  offset="0.7895" style="stop-color:#EE8A2C"/>
	</linearGradient>
	<path class="st2" d="M186.3,33.8c0.4-0.7,0.9-1.5,1.3-2.2c0.2,0.6,0.4,1.7,0.6,2.2c0.5-0.6,1.6-1.8,2.1-2.4c1.4,0.9,2.1,2.3,2,4
		c-0.4-0.6-1.4-1.9-1.8-2.6c-0.6,0.8-1.2,1.5-1.8,2.3C187.8,34.6,187.1,34.2,186.3,33.8z"/>
	<linearGradient id="SVGID_3_" gradientUnits="userSpaceOnUse" x1="67.22" y1="71.02" x2="144" y2="71.02">
		<stop  offset="0" style="stop-color:#EA5B38"/>
		<stop  offset="0.7895" style="stop-color:#EE8A2C"/>
	</linearGradient>
	<path class="st3" d="M67.2,92.1c25.6-14.8,51.2-29.5,76.8-44.2c0,1.4,0,2.7,0,4.1c-24.4,14.1-48.8,28.1-73.2,42.2
		C69.6,93.5,68.4,92.8,67.2,92.1z"/>
	<linearGradient id="SVGID_4_" gradientUnits="userSpaceOnUse" x1="239.62" y1="71.5" x2="318.42" y2="71.5">
		<stop  offset="0" style="stop-color:#EA5B38"/>
		<stop  offset="0.7895" style="stop-color:#EE8A2C"/>
	</linearGradient>
	<path class="st4" d="M239.6,47.8c26.3,15.1,52.5,30.3,78.8,45.4c-1.2,0.7-2.4,1.4-3.6,2.1c-25.1-14.5-50.1-28.9-75.2-43.3
		C239.6,50.5,239.6,49.2,239.6,47.8z"/>
	<linearGradient id="SVGID_5_" gradientUnits="userSpaceOnUse" x1="7.0183" y1="129.4852" x2="68.0484" y2="129.4852">
		<stop  offset="0" style="stop-color:#EA5B38"/>
		<stop  offset="0.7895" style="stop-color:#EE8A2C"/>
	</linearGradient>
	<path class="st5" d="M31.4,99.6c14.9-3.4,31.1,6.3,35.2,20.9c5,14.9-3.8,32.5-18.6,37.6c-14.1,5.6-31.5-1.4-37.9-15.1
		c-6.7-12.9-2.3-30,9.6-38.2C23.2,102.2,27.2,100.5,31.4,99.6 M23.1,115.1c0,2.3,0,4.7,0.1,7c2.9-0.3,5.7-0.4,8.6-0.4
		c1.4-2.3,3.1-5.3,6.2-5.1c3.3-0.2,5.1,2.7,6.4,5.2c2.8,0,5.7,0,8.5,0.1c0-2.3,0-4.5,0-6.8C43,115.1,33,115.1,23.1,115.1
		 M36.1,118.2c-3,1.4-3.9,5.8-1.2,8c2.2,2.6,6.3,1.2,7.5-1.7C44.4,120.8,39.7,116.1,36.1,118.2 M24.1,123.2c3,2.8,6.1,5.5,9.1,8.3
		c3.2,0,6.4,0,9.6,0c3-2.8,6.1-5.5,9.2-8.3c-2.5,0-5.1,0.1-7.6,0.1c-1.3,2.5-3.1,5.6-6.4,5.4c-3.2,0.1-5-2.9-6.3-5.4
		C29.2,123.2,26.6,123.2,24.1,123.2 M33.9,133.1c-1.1,1.5,1.5,2.9,2.5,1.5C37.5,133.1,34.8,131.6,33.9,133.1 M39.8,133
		c-1.3,1.5,1.3,3,2.4,1.7C43.4,133.2,40.8,131.6,39.8,133 M34.4,135.9c1.2,1.8,2.5,3.6,3.8,5.4c-2.2,0.1-4.3,0.2-6.5,0.4
		c0,0.8-0.1,2.5-0.1,3.3c4.3,0,8.6,0,13,0c0-0.8-0.1-2.4-0.1-3.2c-2-0.2-4.1-0.4-6.1-0.7c0.3-0.7,0.9-2.2,1.1-2.9
		c0.8-0.7,1.6-1.5,2.4-2.2C39.3,135.8,36.9,135.8,34.4,135.9z"/>
	<linearGradient id="SVGID_6_" gradientUnits="userSpaceOnUse" x1="312.0473" y1="131.4721" x2="373.0294" y2="131.4721">
		<stop  offset="0" style="stop-color:#EA5B38"/>
		<stop  offset="0.7895" style="stop-color:#EE8A2C"/>
	</linearGradient>
	<path class="st6" d="M336.5,101.6c14.6-3.3,30.5,6,35,20.3c5.2,14.4-2.6,31.9-16.8,37.6c-13.2,6.1-30.1,0.9-37.7-11.4
		c-8.1-12-5.8-29.5,5.1-39.1C326,105.2,331.1,102.7,336.5,101.6 M335.3,122.2c-1,2.3,0,6-3.2,6.7c0,5.1-0.2,10.1,0,15.1
		c-0.1,1.2,0.5,2.9,2,2.8c5.3,0.3,10.6,0.1,16,0.1c1.4,0,3.8,0,3.8-2c0.4-5.4,0.1-10.7,0.1-16.1c-1.2-0.6-2.6-1.2-2.4-2.9
		c-0.4-2.7-1-5.7-3.4-7.3C344.1,115.4,337,117.2,335.3,122.2z"/>
	<linearGradient id="SVGID_7_" gradientUnits="userSpaceOnUse" x1="31.1477" y1="117.315" x2="33.1914" y2="117.315">
		<stop  offset="0" style="stop-color:#EA5B38"/>
		<stop  offset="0.7895" style="stop-color:#EE8A2C"/>
	</linearGradient>
	<path class="st7" d="M31.3,116.5c1.6-0.6,2.2,0,1.8,1.6C31.4,118.7,30.9,118.2,31.3,116.5z"/>
	<linearGradient id="SVGID_8_" gradientUnits="userSpaceOnUse" x1="42.9367" y1="117.3343" x2="44.9978" y2="117.3343">
		<stop  offset="0" style="stop-color:#EA5B38"/>
		<stop  offset="0.7895" style="stop-color:#EE8A2C"/>
	</linearGradient>
	<path class="st8" d="M43.1,116.5c1.6-0.5,2.2,0,1.7,1.6C43.2,118.7,42.6,118.1,43.1,116.5z"/>
	<linearGradient id="SVGID_9_" gradientUnits="userSpaceOnUse" x1="27.8494" y1="119.7153" x2="29.8951" y2="119.7153">
		<stop  offset="0" style="stop-color:#EA5B38"/>
		<stop  offset="0.7895" style="stop-color:#EE8A2C"/>
	</linearGradient>
	<path class="st9" d="M28,118.9c1.6-0.5,2.2,0.1,1.7,1.7C28.1,121.1,27.5,120.5,28,118.9z"/>
	<linearGradient id="SVGID_10_" gradientUnits="userSpaceOnUse" x1="36.0186" y1="122.58" x2="41.28" y2="122.58">
		<stop  offset="0" style="stop-color:#EA5B38"/>
		<stop  offset="0.7895" style="stop-color:#EE8A2C"/>
	</linearGradient>
	<path class="st10" d="M36.2,119c1.4,0.4,2.8,0.7,4.1,1.3c1.5,2.4-2.4,3-3.6,3.8c1.5-0.2,3-0.3,4.6-0.2c-1.6,0.8-3.4,1.5-5.1,2.2
		C35.9,123.8,36.1,121.4,36.2,119 M37.4,121.1C37.4,124.4,40.4,119.6,37.4,121.1z"/>
	<linearGradient id="SVGID_11_" gradientUnits="userSpaceOnUse" x1="46.2136" y1="119.7427" x2="48.2622" y2="119.7427">
		<stop  offset="0" style="stop-color:#EA5B38"/>
		<stop  offset="0.7895" style="stop-color:#EE8A2C"/>
	</linearGradient>
	<path class="st11" d="M46.4,118.9c1.6-0.5,2.2,0.1,1.6,1.7C46.4,121.1,45.9,120.5,46.4,118.9z"/>
	<linearGradient id="SVGID_12_" gradientUnits="userSpaceOnUse" x1="337.77" y1="124.5128" x2="348.23" y2="124.5128">
		<stop  offset="0" style="stop-color:#EA5B38"/>
		<stop  offset="0.7895" style="stop-color:#EE8A2C"/>
	</linearGradient>
	<path class="st12" d="M339.9,121.9c2.1-1.9,5.7-1.4,7.2,1c0.8,1.6,0.8,3.5,1.2,5.3c-3.5,0-7,0-10.5,0
		C338.3,126.1,338,123.5,339.9,121.9z"/>
	<linearGradient id="SVGID_13_" gradientUnits="userSpaceOnUse" x1="340.8793" y1="137.6666" x2="345.0883" y2="137.6666">
		<stop  offset="0" style="stop-color:#EA5B38"/>
		<stop  offset="0.7895" style="stop-color:#EE8A2C"/>
	</linearGradient>
	<path class="st13" d="M340.9,134.1c1.2-1,3-1.1,4.2,0c0.1,2.6-0.3,5.3-0.5,7.9c-1.1,0-2.2,0-3.2,0
		C341.3,139.4,340.9,136.8,340.9,134.1z"/>
	<linearGradient id="SVGID_14_" gradientUnits="userSpaceOnUse" x1="143.0101" y1="216.5088" x2="242.0026" y2="216.5088">
		<stop  offset="0" style="stop-color:#EA5B38"/>
		<stop  offset="0.7895" style="stop-color:#EE8A2C"/>
	</linearGradient>
	<path class="st14" d="M184.5,167.7c11.9-2,24.5,0.5,34.7,7.2c12.4,7.8,21,21.4,22.5,36c1.7,13.9-2.9,28.3-12.3,38.6
		c-10.4,11.8-26.8,18.1-42.4,16.2c-14.1-1.4-27.3-9.5-35.3-21.2c-8.1-11.6-10.6-26.7-7-40.4C149.2,185.5,165.6,170.5,184.5,167.7
		 M186.6,189.3c-2,1.2-4.2,2-6.3,3c2.2,1,4.5,0.1,6.7-0.3c1.2,1.1,2.4,2.4,3.9,3.2c2.9,1.1,4.9-1.7,7.1-3c2.2,0.1,4.4,0.8,6.5-0.1
		c-2.1-1.1-4.3-1.9-6.5-2.8c-1.3-1.8-2.5-4.5-5.1-4.4C189.9,184.5,188.5,187.6,186.6,189.3 M170.1,201.7c3.7-1,6.4-4.1,7.8-7.6
		C174.3,195.6,171.7,198.4,170.1,201.7 M207.3,194.1c1,3.7,4.1,6.4,7.6,7.7C213.4,198.3,210.6,195.7,207.3,194.1 M186.4,198.6
		c-6.3,2.1-11.3,7.8-12.5,14.4c-1.4,7,1.7,14.6,7.5,18.8c5.2,3.9,12.5,4.8,18.5,2.2c5.7-2.4,10.1-7.8,11.2-13.9
		c1.4-7-1.6-14.6-7.4-18.8C198.8,197.6,192.1,196.5,186.4,198.6 M165.5,210.9c-2.2,1.4-5,3.1-4.4,6.2c0,2.6,2.6,3.8,4.4,5.1
		c0.7,2,1.5,3.9,2.2,5.9l1.8-0.8c-0.6-1.7-1.1-3.4-1.6-5.1c1.3-1.6,3.4-2.9,3.6-5.2c0.4-2.6-2-4.3-3.6-6.1c0.6-2,1.1-4,1.6-6.1
		C166.7,205.6,166.5,208.7,165.5,210.9 M215.5,205.8c0.6,1.7,1.1,3.4,1.6,5.1c-1.3,1.6-3.4,2.9-3.6,5.1c-0.4,2.6,2,4.2,3.4,6
		c-0.3,2.2-1.7,4.5-0.2,6.6c1-2.1,1.9-4.3,2.7-6.5c2.2-1.3,5-3.1,4.4-6.1c0.1-2.6-2.6-3.8-4.4-5c-0.7-1.9-1.5-3.9-2.2-5.9
		L215.5,205.8 M170.1,231.3c1.6,3.4,4.3,6.1,7.7,7.6C176.6,235.3,173.7,232.3,170.1,231.3 M207.1,238.8c3.5-1.4,6.2-4.2,7.8-7.5
		C211.3,232.3,208.6,235.4,207.1,238.8 M186.8,240.8c-1.8-0.2-3.4-0.8-5.1-1.2c-0.1,0.4-0.4,1.3-0.6,1.7c1.9,0.7,3.8,1.4,5.8,2.1
		c1.3,1.9,2.5,4.5,5.2,4.5c2.6,0.5,4.1-1.7,5.5-3.4c1.7-2.3,5.6-1.9,6.5-4.9c-2,0.4-3.9,0.9-5.9,1.2c-2-1.1-3.6-3.6-6.2-3.3
		C189.9,237.9,188.6,239.8,186.8,240.8z"/>
	<linearGradient id="SVGID_15_" gradientUnits="userSpaceOnUse" x1="18.31" y1="218.375" x2="21.895" y2="218.375">
		<stop  offset="0" style="stop-color:#EA5B38"/>
		<stop  offset="0.7895" style="stop-color:#EE8A2C"/>
	</linearGradient>
	<path class="st15" d="M18.3,262.7c0-29.5,0-59.1,0-88.6c1.2,0.7,2.4,1.3,3.6,2c0,28.2,0,56.3,0,84.5
		C20.7,261.3,19.5,262,18.3,262.7z"/>
	<linearGradient id="SVGID_16_" gradientUnits="userSpaceOnUse" x1="361.94" y1="220.66" x2="365.5" y2="220.66">
		<stop  offset="0" style="stop-color:#EA5B38"/>
		<stop  offset="0.7895" style="stop-color:#EE8A2C"/>
	</linearGradient>
	<path class="st16" d="M361.9,178.2c1.2-0.7,2.4-1.4,3.5-2c0,29.7,0,59.3,0,89c-1.2-0.7-2.4-1.3-3.6-2
		C361.9,234.8,362,206.5,361.9,178.2z"/>
	<linearGradient id="SVGID_17_" gradientUnits="userSpaceOnUse" x1="177.9247" y1="210.2056" x2="194.49" y2="210.2056">
		<stop  offset="0" style="stop-color:#EA5B38"/>
		<stop  offset="0.7895" style="stop-color:#EE8A2C"/>
	</linearGradient>
	<path class="st17" d="M182.1,206.1c3.2-2.9,8.2-5.7,12.4-3.2c-3.7,1.3-8,1.7-10.9,4.6c-3,2.9-3.4,7.2-4.7,10.9
		C176.3,214.4,179.2,209.3,182.1,206.1z"/>
	<linearGradient id="SVGID_18_" gradientUnits="userSpaceOnUse" x1="186.05" y1="216.425" x2="198.92" y2="216.425">
		<stop  offset="0" style="stop-color:#EA5B38"/>
		<stop  offset="0.7895" style="stop-color:#EE8A2C"/>
	</linearGradient>
	<path class="st18" d="M192.3,206.5c2.8,3.8,4.7,8.1,6.6,12.4c-2.1,2.5-4.2,5-6.3,7.5c-2.3-2.4-4.4-4.9-6.6-7.5
		C188,214.7,190,210.5,192.3,206.5 M189.3,216.2c2.1-0.4,4.2-0.4,6.3,0c-1-1.8-2-3.7-3-5.5C191.5,212.6,190.4,214.4,189.3,216.2
		 M188.9,219.1c1.2,1.4,2.5,2.8,3.7,4.1c1.1-1.4,2.3-2.8,3.4-4.2c-1.3-0.5-2.5-0.9-3.8-1.4C191.1,218.1,190,218.6,188.9,219.1z"/>
	<linearGradient id="SVGID_19_" gradientUnits="userSpaceOnUse" x1="190.52" y1="223.06" x2="207.2727" y2="223.06">
		<stop  offset="0" style="stop-color:#EA5B38"/>
		<stop  offset="0.7895" style="stop-color:#EE8A2C"/>
	</linearGradient>
	<path class="st19" d="M201.4,225.4c2.9-2.7,3.3-6.9,4.5-10.5c2.3,0.9,1.1,3.4,0.8,5.1c-1.5,6.2-7.3,11.1-13.7,11.1
		c-0.6-0.3-1.9-0.8-2.6-1.1C194.2,228.8,198.5,228.4,201.4,225.4z"/>
	<linearGradient id="SVGID_20_" gradientUnits="userSpaceOnUse" x1="7.0486" y1="309.4734" x2="68.0335" y2="309.4734">
		<stop  offset="0" style="stop-color:#EA5B38"/>
		<stop  offset="0.7895" style="stop-color:#EE8A2C"/>
	</linearGradient>
	<path class="st20" d="M31.4,279.6c14.6-3.3,30.5,5.9,35,20.2c5.2,14.5-2.6,31.9-16.9,37.7c-13.1,6-30,0.9-37.6-11.4
		c-8.1-12-5.8-29.6,5-39.1C21,283.2,26.1,280.7,31.4,279.6 M35.6,293.8c1.5,0.6,2.9,1.1,4.3,1.7c0.9,1.4,2.4,1.4,3.2,0
		c1.4-0.6,2.9-1.2,4.3-1.8C43.6,292.7,39.5,292.7,35.6,293.8 M24.5,302.4c3.3,3,7.8,3.5,12.1,3.8c0-2.4,0-4.7,0-7.1
		C32.3,299.1,28.1,300,24.5,302.4 M38.6,302.8c2,0,3.9,0,5.9,0c0-1.3,0-2.7,0-4c-2,0-3.9,0-5.9,0C38.6,300.1,38.6,301.4,38.6,302.8
		 M46.5,300c0,1.7,0.1,3.4,0.1,5.2c1.3-0.9,2.5-1.8,3.8-2.7C49.1,301.6,47.8,300.8,46.5,300 M38.2,304.8c0.5,2,1,5.3,3.9,4.8
		c2.3-0.3,2.1-3.1,2.8-4.8C42.7,304.7,40.4,304.7,38.2,304.8 M24.8,305.7c0.6,1.5-0.1,3.9,1.7,4.8c4.5,2.2,9.7,2.1,14.6,2
		c-2.2-1.7-4-4.5-7-4.6C30.9,307.5,27.8,306.8,24.8,305.7 M47,306.9c-1.4,2.2-3.2,4-5.1,5.7c2.2-0.6,4.6-1,6.6-2.1
		c1.9-0.8,1.1-3.3,1.7-4.9C49.2,306,48.1,306.5,47,306.9 M24.8,312.2c0.2,1.4,0.4,2.9,0.7,4.4c3.6,2.4,8.2,2.8,12.5,2.8
		c3.9-0.2,8.1-0.5,11.4-2.8c0.4-1.4,0.6-2.9,0.9-4.4c-2.5,0.7-5,1.4-7.6,2.1c-0.2,0.6-0.6,1.8-0.8,2.4c-0.5-0.6-1.5-1.7-2-2.2
		C34.9,314.7,29.7,314,24.8,312.2 M25.1,319c0.1,1.4,0.1,2.7,0.1,4.1c7.5,3.9,17.1,3.9,24.7,0.1c0-1.4,0.1-2.8,0.1-4.2
		C42,322,33.1,321.9,25.1,319z"/>
	<linearGradient id="SVGID_21_" gradientUnits="userSpaceOnUse" x1="316.049" y1="309.4773" x2="377.0403" y2="309.4773">
		<stop  offset="0" style="stop-color:#EA5B38"/>
		<stop  offset="0.7895" style="stop-color:#EE8A2C"/>
	</linearGradient>
	<path class="st21" d="M340.4,279.6c14.6-3.3,30.6,6,35,20.3c5.3,14.7-3,32.4-17.6,37.9c-13.1,5.6-29.6,0.3-37-11.8
		c-8.1-12-5.7-29.5,5.1-39C330,283.2,335.1,280.7,340.4,279.6 M344.3,294.1c-2.4,1.8-2.8,4.9-3.7,7.6c3,0,6,0,9.1-0.2
		C348.5,299.1,348,293.7,344.3,294.1 M332.5,301.6c2.1,0.1,4.3,0.2,6.4,0c1.1-2.3,1.7-4.8,2.4-7.2
		C337.6,295.7,334.5,298.3,332.5,301.6 M348.8,294.5c0.7,2.4,1.5,4.9,2.2,7.3c2.2,0,4.4-0.1,6.6-0.2
		C355.6,298.2,352.5,295.7,348.8,294.5 M331.7,303.1c-0.7,3.3-0.7,6.6,0,9.9c0.8,0,2.3,0,3-0.1c0.5-2.4,2-4.3,4.1-5.6
		c0.1-1.4,0.1-2.8,0.2-4.2C336.5,303.1,334.1,303.1,331.7,303.1 M340.4,303.2c-0.1,1.6-0.2,3.2-0.2,4.8c3.3,0,6.5,0,9.8,0
		c-0.1-1.6-0.2-3.3-0.3-4.9C346.6,303.1,343.5,303.1,340.4,303.2 M351.2,303.2c0.1,1.6,0.1,3.2,0.2,4.9c2.6,0,5.2,0,7.8,0
		c-0.3-1.7-0.6-3.3-0.9-5C356,303.1,353.6,303.1,351.2,303.2 M337,310.1c-0.6,2.1-1.3,6.5,2,6.4c6.9,0.1,13.9,0.2,20.8,0
		c2.8,0.1,2.3-3.6,2-5.5c-1-2.3-4-1.1-5.9-1.5C349.7,309.9,343.3,308.8,337,310.1 M332.9,313.6c0.4,2.2,1.8,4,3.7,5.1
		C336,316.6,335.1,314.5,332.9,313.6 M337.4,318.5c-1.3,1.6-1.6,6.4,1.5,6.4c7.3,0.1,14.7,0.3,22.1-0.1c1.6-1.6,1.8-5.2-0.1-6.6
		c-5.9-0.7-11.9-0.1-17.8-0.3C341.2,318.1,339,317.6,337.4,318.5z"/>
	<linearGradient id="SVGID_22_" gradientUnits="userSpaceOnUse" x1="339.2012" y1="313.0173" x2="341.1831" y2="313.0173">
		<stop  offset="0" style="stop-color:#EA5B38"/>
		<stop  offset="0.7895" style="stop-color:#EE8A2C"/>
	</linearGradient>
	<path class="st22" d="M339.4,312.1c1.6-0.5,2.1,0.1,1.6,1.7C339.4,314.4,338.9,313.8,339.4,312.1z"/>
	<linearGradient id="SVGID_23_" gradientUnits="userSpaceOnUse" x1="341.994" y1="313.0323" x2="343.9803" y2="313.0323">
		<stop  offset="0" style="stop-color:#EA5B38"/>
		<stop  offset="0.7895" style="stop-color:#EE8A2C"/>
	</linearGradient>
	<path class="st23" d="M342.2,312.2c1.6-0.5,2.1,0.1,1.6,1.8C342.2,314.4,341.7,313.8,342.2,312.2z"/>
	<linearGradient id="SVGID_24_" gradientUnits="userSpaceOnUse" x1="344.7898" y1="313.02" x2="346.7803" y2="313.02">
		<stop  offset="0" style="stop-color:#EA5B38"/>
		<stop  offset="0.7895" style="stop-color:#EE8A2C"/>
	</linearGradient>
	<path class="st24" d="M345,312.1c1.6-0.5,2.1,0.1,1.6,1.7C345,314.4,344.5,313.8,345,312.1z"/>
	<linearGradient id="SVGID_25_" gradientUnits="userSpaceOnUse" x1="352.016" y1="313.0765" x2="355.1003" y2="313.0765">
		<stop  offset="0" style="stop-color:#EA5B38"/>
		<stop  offset="0.7895" style="stop-color:#EE8A2C"/>
	</linearGradient>
	<path class="st25" d="M352.5,312c1.4-1.5,3.6,0.9,2.1,2.2C353.2,315.6,351,313.3,352.5,312z"/>
	<linearGradient id="SVGID_26_" gradientUnits="userSpaceOnUse" x1="356.2804" y1="313.0249" x2="359.1943" y2="313.0249">
		<stop  offset="0" style="stop-color:#EA5B38"/>
		<stop  offset="0.7895" style="stop-color:#EE8A2C"/>
	</linearGradient>
	<path class="st26" d="M356.6,312.2c1-1.5,3.5,0.2,2.3,1.7C357.9,315.4,355.4,313.6,356.6,312.2z"/>
	<linearGradient id="SVGID_27_" gradientUnits="userSpaceOnUse" x1="338.9412" y1="321.48" x2="341.435" y2="321.48">
		<stop  offset="0" style="stop-color:#EA5B38"/>
		<stop  offset="0.7895" style="stop-color:#EE8A2C"/>
	</linearGradient>
	<path class="st27" d="M340.2,323.1c-1.7-0.2-1.6-3.1,0-3.2C341.9,320,341.8,323,340.2,323.1z"/>
	<linearGradient id="SVGID_28_" gradientUnits="userSpaceOnUse" x1="341.7448" y1="321.505" x2="344.1939" y2="321.505">
		<stop  offset="0" style="stop-color:#EA5B38"/>
		<stop  offset="0.7895" style="stop-color:#EE8A2C"/>
	</linearGradient>
	<path class="st28" d="M343,323.2c-1.7-0.1-1.7-3.1-0.1-3.3C344.6,320,344.6,322.9,343,323.2z"/>
	<linearGradient id="SVGID_29_" gradientUnits="userSpaceOnUse" x1="344.4984" y1="321.4808" x2="347.2797" y2="321.4808">
		<stop  offset="0" style="stop-color:#EA5B38"/>
		<stop  offset="0.7895" style="stop-color:#EE8A2C"/>
	</linearGradient>
	<path class="st29" d="M345.1,320.3c1.4-1.1,3.1,1.4,1.6,2.4C345.2,323.8,343.6,321.3,345.1,320.3z"/>
	<linearGradient id="SVGID_30_" gradientUnits="userSpaceOnUse" x1="352.1413" y1="321.4579" x2="354.9479" y2="321.4579">
		<stop  offset="0" style="stop-color:#EA5B38"/>
		<stop  offset="0.7895" style="stop-color:#EE8A2C"/>
	</linearGradient>
	<path class="st30" d="M352.5,320.6c1.4-1.6,3.4,0.6,2,2C353.2,323.7,351.4,321.9,352.5,320.6z"/>
	<linearGradient id="SVGID_31_" gradientUnits="userSpaceOnUse" x1="356.2531" y1="321.4471" x2="359.2113" y2="321.4471">
		<stop  offset="0" style="stop-color:#EA5B38"/>
		<stop  offset="0.7895" style="stop-color:#EE8A2C"/>
	</linearGradient>
	<path class="st31" d="M357.3,320c1.9-0.6,2.7,2.6,0.8,3C356.2,323.5,355.5,320.4,357.3,320z"/>
	<linearGradient id="SVGID_32_" gradientUnits="userSpaceOnUse" x1="63.92" y1="368.55" x2="144.08" y2="368.55">
		<stop  offset="0" style="stop-color:#EA5B38"/>
		<stop  offset="0.7895" style="stop-color:#EE8A2C"/>
	</linearGradient>
	<path class="st32" d="M63.9,346.5c1.2-0.7,2.4-1.4,3.6-2.1c25.5,14.8,51,29.4,76.5,44.1c0,1,0,3-0.1,4.1
		C117.3,377.3,90.6,361.9,63.9,346.5z"/>
	<linearGradient id="SVGID_33_" gradientUnits="userSpaceOnUse" x1="239.68" y1="369.215" x2="317.69" y2="369.215">
		<stop  offset="0" style="stop-color:#EA5B38"/>
		<stop  offset="0.7895" style="stop-color:#EE8A2C"/>
	</linearGradient>
	<path class="st33" d="M239.7,388.6c24.8-14.3,49.6-28.6,74.5-42.9c1.2,0.7,2.4,1.4,3.6,2.1c-26,15-52,30-78,44.9
		C239.7,391.7,239.7,389.6,239.7,388.6z"/>
	<linearGradient id="SVGID_34_" gradientUnits="userSpaceOnUse" x1="163.0059" y1="395.4862" x2="224.039" y2="395.4862">
		<stop  offset="0" style="stop-color:#EA5B38"/>
		<stop  offset="0.7895" style="stop-color:#EE8A2C"/>
	</linearGradient>
	<path class="st34" d="M187.4,365.6c14.6-3.3,30.5,6,35,20.2c5.4,15-3.3,33.2-18.4,38.3c-14.3,5.7-32-1.7-38.2-15.8
		c-6.4-13.1-1.6-30.1,10.5-38C179.7,368,183.5,366.4,187.4,365.6 M183.4,389c1.2,0,2.4,0,3.6,0.1c0-3.2,0-6.4-0.1-9.7
		C182.3,380.5,183.6,385.5,183.4,389 M190.7,380c0,3,0,6.1,0,9.1c3.1,0,6.2,0,9.3,0c-0.3-2.7,0.5-5.8-0.8-8.2
		C196.7,379.3,193.5,380.2,190.7,380 M178.8,387.6c0.9,0.7,1.8,1.3,2.8,2c0-1.6-0.1-3.2-0.2-4.8
		C180.5,385.7,179.5,386.5,178.8,387.6 M201.4,389.1c1-0.1,3.1-0.2,4.2-0.2c-1.1-1.3-2.1-2.5-3.3-3.7
		C202.1,386.5,201.8,387.8,201.4,389.1 M178,390.1c0.2,5.6-0.2,11.3,0.2,17c0.1,2.4,2.5,4,4.7,3.9c6.7,0.1,13.5,0.2,20.2-0.1
		c2.9,0.1,3.7-3,4.6-5.1c-2.5-0.2-5.2,0-7.6-0.9c-2.7-1.7-2.7-6.3,0.1-7.8c2.4-0.8,4.9-0.6,7.4-0.8c-0.8-1.8-1.6-3.6-2.6-5.4
		C196.1,390.5,186.9,391.7,178,390.1 M199.9,400.9c0.4,4.4,6.1,2.4,9,2.8c0-1.8,0-3.6,0-5.5C206,398.7,200.5,396.7,199.9,400.9z"/>
	<linearGradient id="SVGID_35_" gradientUnits="userSpaceOnUse" x1="186.59" y1="401.01" x2="196.1213" y2="401.01">
		<stop  offset="0" style="stop-color:#EA5B38"/>
		<stop  offset="0.7895" style="stop-color:#EE8A2C"/>
	</linearGradient>
	<path class="st35" d="M191.8,394.9c1.4,1,2.8,1.9,4,3.1c0.4,1.9,0.4,4,0,5.9c-1.2,1.2-2.7,2.1-4.1,3.1c-1.5-1.2-3.4-1.7-5.2-2.3
		c0.6-0.4,1.7-1.1,2.3-1.5c0-1.6,0-3.2,0-4.8c-0.6-0.3-1.7-1-2.3-1.4C188.4,396.6,190.2,396,191.8,394.9 M191.1,398.4
		c-1.3,1.6,1.7,2.7,2.6,1.5C195,398.3,192.1,397.2,191.1,398.4 M191.1,402.1c-1.3,1.6,1.7,2.7,2.6,1.5
		C195,402,192.1,400.9,191.1,402.1z"/>
	<linearGradient id="SVGID_36_" gradientUnits="userSpaceOnUse" x1="201.6151" y1="401.025" x2="203.6138" y2="401.025">
		<stop  offset="0" style="stop-color:#EA5B38"/>
		<stop  offset="0.7895" style="stop-color:#EE8A2C"/>
	</linearGradient>
	<path class="st36" d="M201.8,400.2c1.6-0.6,2.2,0,1.7,1.6C201.9,402.4,201.3,401.9,201.8,400.2z"/>
</g>
<g id="_x23_ffffffff">
	<path class="st37" d="M183.1,21.2c4.3-0.4,8.6-0.4,12.9,0c1.8,4,0.2,8.6,1,12.8c1.6,2.6,4.3,4.3,5.9,6.9c-0.3,4.7-1.4,9.3-1.8,13.9
		c-2.3,0-4.7,0-7,0c-3.3-5-4.1-11.2-3.9-17c3.3,0.6,3.2,4.9,4.8,7.3c0.2-6.5,0.1-12.9,0.1-19.4c-1.1-1-2.1-2-3.1-3
		c-1.8,0-3.5-0.1-5.3-0.1c-0.2,0.5-0.7,1.5-0.9,1.9c-0.5,0.2-1.4,0.7-1.9,0.9c0.1,4.9,0,9.8,0,14.7c1.6,1.2,3.1,2.5,4.7,3.8l0.1,1.2
		c-2.1,0-4.1,0-6.2-0.1c-0.7-7.6-0.7-15.3-0.2-23C182.5,22,182.9,21.5,183.1,21.2z"/>
	<path class="st37" d="M189.3,25.3c1.6-0.5,2.3,2.2,0.7,2.5C188.4,28.3,187.7,25.7,189.3,25.3z"/>
	<path class="st37" d="M185.1,32c0.8-3.4,5.6-4.5,7.7-1.8c1.7,1.7,0.7,4.2,0.6,6.3c-0.8-0.1-2.4-0.2-3.3-0.3
		c-0.6,0.5-1.7,1.4-2.3,1.9C186.3,36.4,184.1,34.5,185.1,32 M186.3,33.8c0.8,0.4,1.6,0.9,2.4,1.3c0.6-0.8,1.2-1.5,1.8-2.3
		c0.4,0.6,1.4,1.9,1.8,2.6c0.1-1.7-0.5-3.1-2-4c-0.5,0.6-1.6,1.8-2.1,2.4c-0.1-0.6-0.4-1.7-0.6-2.2C187.1,32.3,186.7,33,186.3,33.8z
		"/>
	<path class="st37" d="M23.1,115.1c9.9,0,19.9,0.1,29.9,0c0,2.3,0,4.5,0,6.8c-2.9,0-5.7-0.1-8.5-0.1c-1.4-2.5-3.2-5.4-6.4-5.2
		c-3.1-0.2-4.9,2.8-6.2,5.1c-2.9,0-5.8,0.2-8.6,0.4C23.1,119.8,23.1,117.4,23.1,115.1 M31.3,116.5c-0.4,1.6,0.1,2.2,1.8,1.6
		C33.5,116.5,32.9,115.9,31.3,116.5 M43.1,116.5c-0.5,1.6,0,2.2,1.7,1.6C45.3,116.5,44.8,116,43.1,116.5 M28,118.9
		c-0.5,1.6,0,2.2,1.7,1.7C30.2,118.9,29.7,118.4,28,118.9 M46.4,118.9c-0.5,1.6,0,2.2,1.6,1.7C48.6,119,48.1,118.4,46.4,118.9z"/>
	<path class="st37" d="M335.3,122.2c1.8-5,8.8-6.8,12.9-3.4c2.4,1.6,3,4.6,3.4,7.3c-0.2,1.6,1.2,2.2,2.4,2.9
		c0,5.4,0.3,10.8-0.1,16.1c0,2-2.4,1.9-3.8,2c-5.3,0-10.6,0.2-16-0.1c-1.5,0.1-2-1.6-2-2.8c-0.2-5,0-10.1,0-15.1
		C335.3,128.2,334.3,124.5,335.3,122.2 M339.9,121.9c-1.8,1.5-1.6,4.2-2.1,6.3c3.5,0,7,0,10.5,0c-0.4-1.8-0.4-3.6-1.2-5.3
		C345.6,120.5,341.9,120,339.9,121.9 M340.9,134.1c0,2.6,0.4,5.2,0.5,7.9c1.1,0,2.1,0,3.2,0c0.1-2.6,0.6-5.3,0.5-7.9
		C343.9,133,342.1,133.1,340.9,134.1z"/>
	<path class="st37" d="M36.1,118.2c3.6-2.1,8.3,2.6,6.4,6.3c-1.2,2.9-5.4,4.2-7.5,1.7C32.2,124,33.1,119.6,36.1,118.2 M36.2,119
		c-0.2,2.4-0.4,4.8-0.1,7.1c1.7-0.7,3.4-1.4,5.1-2.2c-1.5-0.1-3,0-4.6,0.2c1.3-0.9,5.2-1.4,3.6-3.8C39,119.8,37.6,119.4,36.2,119z"
		/>
	<path class="st37" d="M37.4,121.1C40.4,119.6,37.4,124.4,37.4,121.1z"/>
	<path class="st37" d="M24.1,123.2c2.5,0,5,0,7.6,0c1.4,2.5,3.1,5.5,6.3,5.4c3.3,0.2,5.1-2.9,6.4-5.4c2.5,0,5.1,0,7.6-0.1
		c-3,2.8-6.1,5.5-9.2,8.3c-3.2,0-6.4,0-9.6,0C30.2,128.7,27.1,126,24.1,123.2z"/>
	<path class="st37" d="M33.9,133.1c0.9-1.5,3.6,0,2.5,1.5C35.4,136,32.8,134.6,33.9,133.1z"/>
	<path class="st37" d="M39.8,133c1-1.3,3.6,0.2,2.4,1.7C41.1,136,38.5,134.4,39.8,133z"/>
	<path class="st37" d="M34.4,135.9c2.5,0,5,0,7.5,0.1c-0.8,0.8-1.6,1.5-2.4,2.2c-0.3,0.7-0.9,2.1-1.1,2.9c2,0.2,4.1,0.5,6.1,0.7
		c0,0.8,0.1,2.4,0.1,3.2c-4.3,0-8.6,0-13,0c0-0.8,0.1-2.4,0.1-3.3c2.1-0.2,4.3-0.3,6.5-0.4C36.9,139.4,35.6,137.7,34.4,135.9z"/>
	<path class="st37" d="M186.6,189.3c1.9-1.8,3.3-4.9,6.4-4.3c2.6,0,3.8,2.6,5.1,4.4c2.2,0.9,4.4,1.7,6.5,2.8
		c-2.1,0.8-4.4,0.2-6.5,0.1c-2.2,1.3-4.2,4-7.1,3c-1.5-0.9-2.7-2.1-3.9-3.2c-2.2,0.4-4.5,1.3-6.7,0.3
		C182.4,191.3,184.7,190.6,186.6,189.3z"/>
	<path class="st37" d="M170.1,201.7c1.6-3.3,4.3-6.1,7.8-7.6C176.5,197.6,173.7,200.7,170.1,201.7z"/>
	<path class="st37" d="M207.3,194.1c3.3,1.6,6.1,4.3,7.6,7.7C211.4,200.5,208.3,197.7,207.3,194.1z"/>
	<path class="st37" d="M186.4,198.6c5.8-2.1,12.4-1,17.3,2.7c5.8,4.2,8.8,11.8,7.4,18.8c-1.1,6.1-5.5,11.5-11.2,13.9
		c-6,2.6-13.3,1.8-18.5-2.2c-5.8-4.2-8.9-11.8-7.5-18.8C175.1,206.4,180.1,200.7,186.4,198.6 M182.1,206.1
		c-2.9,3.2-5.8,8.3-3.2,12.4c1.3-3.7,1.6-8.1,4.7-10.9c2.9-3,7.2-3.4,10.9-4.6C190.3,200.4,185.3,203.2,182.1,206.1 M192.3,206.5
		c-2.3,4-4.3,8.2-6.3,12.4c2.1,2.5,4.3,5.1,6.6,7.5c2.1-2.5,4.2-5,6.3-7.5C197,214.6,195.1,210.3,192.3,206.5 M201.4,225.4
		c-2.9,3-7.2,3.3-10.9,4.6c0.6,0.3,1.9,0.8,2.6,1.1c6.3,0,12.2-4.9,13.7-11.1c0.2-1.7,1.4-4.2-0.8-5.1
		C204.7,218.6,204.3,222.7,201.4,225.4z"/>
	<path class="st37" d="M165.5,210.9c1-2.1,1.3-5.3,4-6c-0.5,2-1,4-1.6,6.1c1.5,1.8,4,3.4,3.6,6.1c-0.2,2.2-2.3,3.6-3.6,5.2
		c0.5,1.7,1.1,3.4,1.6,5.1l-1.8,0.8c-0.8-2-1.5-3.9-2.2-5.9c-1.8-1.3-4.5-2.4-4.4-5.1C160.5,214,163.3,212.3,165.5,210.9z"/>
	<path class="st37" d="M215.5,205.8l1.8-0.7c0.7,1.9,1.5,3.9,2.2,5.9c1.8,1.3,4.5,2.4,4.4,5c0.6,3.1-2.2,4.8-4.4,6.1
		c-0.8,2.2-1.7,4.4-2.7,6.5c-1.5-2.1-0.2-4.4,0.2-6.6c-1.5-1.8-3.9-3.4-3.4-6c0.2-2.2,2.3-3.6,3.6-5.1
		C216.6,209.2,216,207.5,215.5,205.8z"/>
	<path class="st37" d="M189.3,216.2c1.1-1.8,2.2-3.7,3.3-5.5c1,1.9,2,3.7,3,5.5C193.5,215.9,191.4,215.8,189.3,216.2z"/>
	<path class="st37" d="M188.9,219.1c1.1-0.5,2.2-1,3.3-1.5c1.3,0.5,2.5,0.9,3.8,1.4c-1.1,1.4-2.3,2.8-3.4,4.2
		C191.4,221.8,190.1,220.4,188.9,219.1z"/>
	<path class="st37" d="M170.1,231.3c3.6,1.1,6.5,4.1,7.7,7.6C174.3,237.4,171.6,234.6,170.1,231.3z"/>
	<path class="st37" d="M207.1,238.8c1.4-3.4,4.1-6.5,7.8-7.5C213.3,234.6,210.7,237.5,207.1,238.8z"/>
	<path class="st37" d="M186.8,240.8c1.8-1,3.1-2.9,5.2-3.3c2.6-0.3,4.2,2.2,6.2,3.3c2-0.2,3.9-0.8,5.9-1.2c-1,3-4.8,2.6-6.5,4.9
		c-1.4,1.7-3,3.9-5.5,3.4c-2.7,0.1-3.9-2.6-5.2-4.5c-1.9-0.7-3.8-1.4-5.8-2.1c0.1-0.4,0.4-1.3,0.6-1.7
		C183.4,240,185.1,240.6,186.8,240.8z"/>
	<path class="st37" d="M35.6,293.8c3.9-1.1,8-1.1,11.9,0c-1.4,0.6-2.8,1.2-4.3,1.8c-0.9,1.4-2.4,1.4-3.2,0
		C38.5,294.9,37.1,294.4,35.6,293.8z"/>
	<path class="st37" d="M344.3,294.1c3.7-0.5,4.1,4.9,5.4,7.4c-3,0.1-6,0.2-9.1,0.2C341.5,299.1,341.9,295.9,344.3,294.1z"/>
	<path class="st37" d="M332.5,301.6c2-3.4,5.1-5.9,8.8-7.2c-0.7,2.4-1.3,5-2.4,7.2C336.8,301.8,334.6,301.7,332.5,301.6z"/>
	<path class="st37" d="M348.8,294.5c3.7,1.3,6.8,3.8,8.8,7.1c-2.2,0.1-4.4,0.1-6.6,0.2C350.3,299.3,349.6,296.9,348.8,294.5z"/>
	<path class="st37" d="M24.5,302.4c3.6-2.4,7.8-3.2,12.1-3.3c0,2.4,0,4.7,0,7.1C32.3,305.9,27.8,305.4,24.5,302.4z"/>
	<path class="st37" d="M38.6,302.8c0-1.3,0-2.7,0-4c2,0,3.9,0,5.9,0c0,1.3,0,2.7,0,4C42.5,302.8,40.6,302.8,38.6,302.8z"/>
	<path class="st37" d="M46.5,300c1.3,0.8,2.6,1.6,3.9,2.5c-1.3,0.9-2.5,1.8-3.8,2.7C46.6,303.5,46.5,301.7,46.5,300z"/>
	<path class="st37" d="M331.7,303.1c2.4,0,4.8,0,7.3,0.1c-0.1,1.4-0.1,2.8-0.2,4.2c-2.1,1.3-3.6,3.2-4.1,5.6c-0.8,0-2.3,0.1-3,0.1
		C331,309.8,331,306.4,331.7,303.1z"/>
	<path class="st37" d="M340.4,303.2c3.1-0.1,6.2-0.1,9.3-0.1c0.1,1.6,0.2,3.3,0.3,4.9c-3.3,0-6.6,0-9.8,0
		C340.3,306.4,340.3,304.8,340.4,303.2z"/>
	<path class="st37" d="M351.2,303.2c2.4,0,4.8-0.1,7.1-0.1c0.3,1.6,0.6,3.3,0.9,5c-2.6,0-5.2,0-7.8,0
		C351.4,306.4,351.3,304.8,351.2,303.2z"/>
	<path class="st37" d="M38.2,304.8c2.3,0,4.5,0,6.8,0c-0.7,1.7-0.5,4.4-2.8,4.8C39.2,310,38.6,306.8,38.2,304.8z"/>
	<path class="st37" d="M24.8,305.7c3,1,6.1,1.7,9.3,2.1c3.1,0.1,4.8,2.9,7,4.6c-4.9,0.1-10.1,0.2-14.6-2
		C24.7,309.7,25.4,307.3,24.8,305.7z"/>
	<path class="st37" d="M47,306.9c1.1-0.4,2.1-0.9,3.2-1.3c-0.5,1.6,0.2,4.1-1.7,4.9c-2.1,1.1-4.4,1.5-6.6,2.1
		C43.9,310.9,45.7,309.1,47,306.9z"/>
	<path class="st37" d="M337,310.1c6.2-1.3,12.6-0.2,18.9-0.6c1.9,0.4,4.9-0.8,5.9,1.5c0.3,1.8,0.8,5.5-2,5.5
		c-6.9,0.2-13.8,0.2-20.8,0C335.8,316.6,336.4,312.2,337,310.1 M339.4,312.1c-0.5,1.7,0,2.2,1.6,1.7
		C341.5,312.2,341,311.6,339.4,312.1 M342.2,312.2c-0.5,1.7,0,2.2,1.6,1.8C344.3,312.2,343.8,311.7,342.2,312.2 M345,312.1
		c-0.5,1.7,0,2.2,1.6,1.7C347.1,312.2,346.6,311.6,345,312.1 M352.5,312c-1.5,1.3,0.7,3.6,2.1,2.2
		C356.1,312.9,353.9,310.5,352.5,312 M356.6,312.2c-1.2,1.4,1.3,3.2,2.3,1.7C360,312.4,357.6,310.6,356.6,312.2z"/>
	<path class="st37" d="M24.8,312.2c4.9,1.9,10,2.6,15.2,2.4c0.5,0.6,1.5,1.7,2,2.2c0.2-0.6,0.6-1.8,0.8-2.4c2.5-0.7,5-1.4,7.6-2.1
		c-0.2,1.5-0.5,2.9-0.9,4.4c-3.3,2.3-7.5,2.6-11.4,2.8c-4.3,0-8.8-0.4-12.5-2.8C25.2,315.1,25,313.6,24.8,312.2z"/>
	<path class="st37" d="M332.9,313.6c2.2,0.8,3.2,2.9,3.7,5.1C334.6,317.6,333.3,315.8,332.9,313.6z"/>
	<path class="st37" d="M337.4,318.5c1.6-1,3.8-0.5,5.6-0.6c5.9,0.2,11.9-0.4,17.8,0.3c1.9,1.4,1.7,5,0.1,6.6
		c-7.3,0.5-14.7,0.2-22.1,0.1C335.8,324.9,336.1,320.1,337.4,318.5 M340.2,323.1c1.7-0.1,1.7-3.1,0-3.2
		C338.5,320,338.5,322.9,340.2,323.1 M343,323.2c1.6-0.3,1.6-3.2-0.1-3.3C341.3,320.1,341.3,323,343,323.2 M345.1,320.3
		c-1.4,1,0.1,3.5,1.6,2.4C348.2,321.7,346.5,319.1,345.1,320.3 M352.5,320.6c-1.1,1.3,0.7,3.1,2,2
		C355.8,321.1,353.8,318.9,352.5,320.6 M357.3,320c-1.9,0.4-1.1,3.5,0.8,3C360,322.5,359.2,319.4,357.3,320z"/>
	<path class="st37" d="M25.1,319c8,2.9,16.9,3,24.9,0c0,1.4-0.1,2.8-0.1,4.2c-7.6,3.8-17.1,3.8-24.7-0.1
		C25.2,321.8,25.1,320.4,25.1,319z"/>
	<path class="st37" d="M183.4,389c0.1-3.5-1.1-8.5,3.5-9.6c0.1,3.2,0.1,6.4,0.1,9.7C185.8,389.1,184.6,389,183.4,389z"/>
	<path class="st37" d="M190.7,380c2.8,0.3,6-0.7,8.5,0.9c1.4,2.4,0.6,5.5,0.8,8.2c-3.1,0-6.2,0-9.3,0C190.7,386,190.7,383,190.7,380
		z"/>
	<path class="st37" d="M178.8,387.6c0.6-1.1,1.7-1.9,2.6-2.8c0.1,1.6,0.1,3.2,0.2,4.8C180.7,388.9,179.7,388.3,178.8,387.6z"/>
	<path class="st37" d="M201.4,389.1c0.3-1.3,0.6-2.6,0.9-4c1.1,1.2,2.2,2.5,3.3,3.7C204.6,389,202.5,389.1,201.4,389.1z"/>
	<path class="st37" d="M178,390.1c9,1.6,18.1,0.4,27.2,0.7c0.9,1.8,1.7,3.6,2.6,5.4c-2.5,0.2-5,0-7.4,0.8c-2.8,1.6-2.8,6.2-0.1,7.8
		c2.4,0.9,5,0.6,7.6,0.9c-0.9,2.1-1.7,5.2-4.6,5.1c-6.7,0.3-13.5,0.1-20.2,0.1c-2.3,0.1-4.7-1.5-4.7-3.9
		C177.7,401.4,178.1,395.8,178,390.1 M191.8,394.9c-1.6,1.1-3.4,1.7-5.2,2.3c0.6,0.3,1.7,1,2.3,1.4c0,1.6,0,3.2,0,4.8
		c-0.6,0.4-1.7,1.1-2.3,1.5c1.8,0.5,3.7,1.1,5.2,2.3c1.4-1,2.9-1.9,4.1-3.1c0.3-2,0.4-4,0-5.9C194.6,396.8,193.1,395.9,191.8,394.9z
		"/>
	<path class="st37" d="M191.1,398.4c0.9-1.2,3.9-0.1,2.6,1.5C192.8,401.1,189.9,400,191.1,398.4z"/>
	<path class="st37" d="M199.9,400.9c0.6-4.2,6.1-2.2,9-2.6c0,1.8,0,3.6,0,5.5C206,403.3,200.4,405.3,199.9,400.9 M201.8,400.2
		c-0.4,1.7,0.1,2.2,1.7,1.6C203.9,400.2,203.3,399.6,201.8,400.2z"/>
	<path class="st37" d="M191.1,402.1c1-1.2,3.9-0.1,2.6,1.5C192.8,404.8,189.9,403.7,191.1,402.1z"/>
</g>
</svg>
