<svg xmlns="http://www.w3.org/2000/svg" viewBox="0 0 271.04 273.76"><defs><style>.cls-1{fill:#002f5e;}.cls-2{fill:#b21218;fill-rule:evenodd;}</style></defs><title>Asset 3</title><g id="Layer_2" data-name="Layer 2"><g id="Layer_1-2" data-name="Layer 1"><path class="cls-1" d="M171.56,222.14h-.1a3.09,3.09,0,0,1-2.9-2.32l-21.28-84h0l-8.11,32.45a13.21,13.21,0,0,1-9.83,11,4.26,4.26,0,0,1-.5.06l-34.59,1.23a3.09,3.09,0,1,1-.22-6.17l34.27-1.22h0c.84-.25,4-1.49,4.8-6.09a2,2,0,0,1,.05-.24l11.11-44.47a3.1,3.1,0,0,1,3-2.34h0a3.08,3.08,0,0,1,3,2.33l21.66,85.52h0l18.94-58.94a3.09,3.09,0,0,1,2.9-2.14,3.13,3.13,0,0,1,3,2.07l12,34.32h0l7.65-7.51a3.09,3.09,0,0,1,2.16-.88h12.83a3.22,3.22,0,0,1,3.29,3,3.09,3.09,0,0,1-3.09,3.23H219.76l-10.19,10a3,3,0,0,1-1.27.78,3.11,3.11,0,0,1-3.83-1.94l-10.56-30.22h0L174.5,220A3.1,3.1,0,0,1,171.56,222.14Z"/><path class="cls-2" d="M179.34,272.45c-27-5.49-51.15-13.6-73.63-26.71C75.79,228.29,44,202.88,32.89,153.68c-10.06-44.42,8-87.39,44.55-101.94,28.56-11.37,49.59-3.11,69.06,8,12.84-31.51,55.23-47.67,86.73-37.93A83.58,83.58,0,0,1,271,45.7C258.32,23.24,239.79,9.86,219.12,3.25c-33.57-10.74-79.21,5.89-93.44,39.2-20.68-12-43.07-21.07-73.83-9.34C12.52,48.09-7.5,93.51,2.59,140.82c11.17,52.4,44.79,79.79,76.56,98.7,23.87,14.21,49.59,23.12,78.43,29.3,9.18,2,20.87,5.49,27.35,4.87C183,273.24,181.12,272.82,179.34,272.45Z"/></g></g></svg>