<svg xmlns="http://www.w3.org/2000/svg" viewBox="0 0 587.66 241.93"><defs><style>.cls-1{fill:#002f5e;}.cls-2,.cls-4{fill:#b21218;}.cls-2{fill-rule:evenodd;}.cls-3{fill:#002e5f;}</style></defs><title>Asset 1</title><g id="Layer_2" data-name="Layer 2"><g id="Layer_1-2" data-name="Layer 1"><path class="cls-1" d="M167.82,193.55h-.09a3.08,3.08,0,0,1-2.9-2.33l-21.28-84-8.12,32.45c-1.61,9.3-9.49,11-9.83,11a2.05,2.05,0,0,1-.49.06L90.52,152a3.09,3.09,0,0,1-.22-6.18l34.26-1.22c.85-.25,4-1.49,4.8-6.08,0-.08,0-.16,0-.24l11.12-44.47a3.08,3.08,0,0,1,3-2.34h0a3.08,3.08,0,0,1,3,2.33l21.66,85.51,18.94-58.93a3.09,3.09,0,0,1,2.9-2.15,3.14,3.14,0,0,1,3,2.07l12,34.32,7.65-7.5a3.06,3.06,0,0,1,2.16-.89h369.8a3.09,3.09,0,0,1,0,6.18H216l-10.22,10a3.09,3.09,0,0,1-5.08-1.19L190.18,131l-19.42,60.41A3.08,3.08,0,0,1,167.82,193.55Z"/><path class="cls-2" d="M158.48,240.77c-23.87-4.85-45.19-12-65.06-23.61C67,201.75,38.91,179.29,29.07,135.81c-8.89-39.26,7.09-77.23,39.36-90.08,25.25-10.06,43.83-2.75,61,7,11.35-27.84,48.8-42.12,76.64-33.51a73.88,73.88,0,0,1,33.42,21.12C228.29,20.54,211.91,8.71,193.64,2.87c-29.67-9.49-70,5.2-82.57,34.64C92.79,26.89,73,18.89,45.82,29.26,11.07,42.5-6.63,82.64,2.29,124.45c9.87,46.3,39.58,70.51,67.65,87.22,21.1,12.56,43.83,20.43,69.31,25.89,8.12,1.74,18.45,4.86,24.18,4.3C161.73,241.47,160.06,241.1,158.48,240.77Z"/><text/><path class="cls-3" d="M235.69,118l-4.37,15.75H217L235.69,72.4h18.2l19,61.34H258L253.26,118Zm15.56-10.37-3.82-13c-1.09-3.64-2.18-8.19-3.09-11.83h-.18c-.91,3.64-1.82,8.28-2.82,11.83l-3.64,13Z"/><path class="cls-3" d="M317.59,107.8H295v14.56h25.21v11.38H281.1V72.4H319V83.78H295V96.52h22.57Z"/><path class="cls-3" d="M329.69,73.22A123.79,123.79,0,0,1,348.44,72c11.65,0,19.2,2.09,25.12,6.55,6.37,4.73,10.37,12.28,10.37,23.11,0,11.74-4.27,19.84-10.19,24.85-6.46,5.37-16.29,7.91-28.3,7.91a119.35,119.35,0,0,1-15.75-.91Zm13.93,50.05a25.74,25.74,0,0,0,4.82.27c12.56.1,20.75-6.82,20.75-21.47.09-12.74-7.37-19.48-19.29-19.48a28.91,28.91,0,0,0-6.28.55Z"/><path class="cls-3" d="M411.41,72.4h13.93v49.69h24.38v11.65H411.41Z"/><path class="cls-3" d="M510.6,102.43c0,20.11-12.19,32.31-30.12,32.31-18.2,0-28.85-13.74-28.85-31.22,0-18.38,11.74-32.12,29.85-32.12C500.32,71.4,510.6,85.51,510.6,102.43Zm-44.32.82c0,12,5.65,20.48,14.93,20.48S496,114.81,496,102.89c0-11-5.28-20.48-14.83-20.48C471.74,82.41,466.28,91.33,466.28,103.25Z"/><path class="cls-3" d="M570.94,130.92a68.92,68.92,0,0,1-20.48,3.45c-11.19,0-19.29-2.82-24.94-8.28-5.64-5.28-8.73-13.28-8.64-22.29.09-20.39,14.92-32,35-32,7.91,0,14,1.55,17,3L566,85.87c-3.37-1.46-7.55-2.64-14.29-2.64-11.55,0-20.29,6.55-20.29,19.84,0,12.65,7.92,20.11,19.29,20.11,3.19,0,5.74-.36,6.83-.91V109.44h-9.47V98.61h22.85Z"/><path class="cls-4" d="M235.37,180.7c-.16-2.92-.34-6.42-.31-9H235c-.71,2.45-1.58,5.06-2.63,7.94l-3.69,10.14h-2l-3.38-9.95c-1-3-1.83-5.64-2.42-8.13h-.06c-.06,2.61-.22,6.11-.4,9.24l-.56,9H217.2l1.45-20.9h3.45l3.56,10.1c.87,2.58,1.58,4.87,2.11,7h.09c.53-2.11,1.28-4.4,2.2-7l3.73-10.1h3.44l1.3,20.9h-2.64Z"/><path class="cls-4" d="M245.75,183.3l-2.17,6.58h-2.79l7.1-20.9h3.25l7.14,20.9h-2.89l-2.23-6.58Zm6.85-2.11-2-6c-.46-1.37-.77-2.61-1.08-3.82h-.06c-.31,1.24-.65,2.52-1.06,3.79l-2,6Z"/><path class="cls-4" d="M261.34,189.88V169h3L271,179.55a60.57,60.57,0,0,1,3.76,6.79l.06,0c-.25-2.79-.31-5.33-.31-8.59V169H277v20.9H274.3l-6.63-10.61a64.05,64.05,0,0,1-3.91-7l-.09,0c.15,2.63.21,5.14.21,8.62v8.93Z"/><path class="cls-4" d="M285.12,183.3,283,189.88h-2.79l7.1-20.9h3.25l7.13,20.9h-2.88l-2.23-6.58Zm6.85-2.11-2.05-6c-.46-1.37-.77-2.61-1.08-3.82h-.06c-.31,1.24-.65,2.52-1.06,3.79l-2,6Z"/><path class="cls-4" d="M316.15,188.94a19.33,19.33,0,0,1-6.42,1.15A9.81,9.81,0,0,1,299,179.55c0-6.23,4.31-10.79,11.31-10.79a13,13,0,0,1,5.21,1l-.65,2.2a10.93,10.93,0,0,0-4.62-.9c-5.08,0-8.4,3.17-8.4,8.41s3.19,8.43,8.06,8.43a8.8,8.8,0,0,0,3.6-.56v-6.23h-4.25V178.9h6.88Z"/><path class="cls-4" d="M331.09,180.08H323v7.53h9v2.27H320.27V169h11.29v2.26H323v6.6h8.12Z"/><path class="cls-4" d="M353.14,180.7c-.16-2.92-.35-6.42-.31-9h-.1c-.71,2.45-1.58,5.06-2.63,7.94l-3.69,10.14h-2.05L341,179.8c-1-3-1.83-5.64-2.42-8.13h-.06c-.06,2.61-.22,6.11-.4,9.24l-.56,9H335l1.45-20.9h3.44l3.57,10.1c.87,2.58,1.58,4.87,2.11,7h.09c.53-2.11,1.27-4.4,2.2-7l3.72-10.1H355l1.3,20.9h-2.64Z"/><path class="cls-4" d="M371.27,180.08h-8.13v7.53h9.06v2.27H360.45V169h11.28v2.26h-8.59v6.6h8.13Z"/><path class="cls-4" d="M375.7,189.88V169h2.94l6.7,10.57a58.83,58.83,0,0,1,3.75,6.79l.07,0c-.25-2.79-.31-5.33-.31-8.59V169h2.54v20.9h-2.73L382,179.27a65.64,65.64,0,0,1-3.9-7l-.1,0c.16,2.63.22,5.14.22,8.62v8.93Z"/><path class="cls-4" d="M400.07,171.27h-6.36V169h15.47v2.29h-6.39v18.61h-2.72Z"/><path class="cls-4" d="M431.16,189.88c-.59-.59-1.15-1.18-2-2a8.6,8.6,0,0,1-6.11,2.39c-4.06,0-6.42-2.73-6.42-5.86,0-2.86,1.71-4.81,4.09-6.11v-.09a7.23,7.23,0,0,1-1.73-4.38,5.07,5.07,0,0,1,5.3-5.14,4.35,4.35,0,0,1,4.62,4.43c0,2.2-1.27,3.94-4.59,5.58v.09c1.77,2,3.75,4.34,5.08,5.83a15.08,15.08,0,0,0,2-6.11H434c-.56,3.29-1.46,5.9-3,7.73,1.12,1.17,2.2,2.35,3.45,3.69Zm-3.29-3.6c-1.24-1.37-3.56-3.91-5.89-6.57a5.13,5.13,0,0,0-2.7,4.24,4.13,4.13,0,0,0,4.28,4.22A5.85,5.85,0,0,0,427.87,186.28Zm-6.35-12.74a5.88,5.88,0,0,0,1.58,3.75c2.11-1.21,3.47-2.33,3.47-4.1a2.45,2.45,0,0,0-2.42-2.69C422.42,170.5,421.52,171.92,421.52,173.54Z"/><path class="cls-4" d="M446.1,171.27h-6.36V169h15.48v2.29h-6.39v18.61H446.1Z"/><path class="cls-4" d="M457.54,169.26a27.89,27.89,0,0,1,5.18-.44c2.88,0,4.74.53,6,1.71a5.17,5.17,0,0,1,1.64,4,5.48,5.48,0,0,1-3.93,5.33v.09c1.61.56,2.57,2.05,3.07,4.22a33.85,33.85,0,0,0,1.61,5.74h-2.79a27.14,27.14,0,0,1-1.4-5c-.62-2.88-1.73-4-4.18-4.06h-2.55v9.06h-2.69Zm2.69,9.51H463c2.89,0,4.72-1.58,4.72-4,0-2.7-2-3.88-4.81-3.91a10.84,10.84,0,0,0-2.67.25Z"/><path class="cls-4" d="M477.75,183.3l-2.17,6.58h-2.79l7.1-20.9h3.25l7.14,20.9h-2.89l-2.23-6.58Zm6.85-2.11-2-6c-.47-1.37-.78-2.61-1.09-3.82h-.06c-.31,1.24-.65,2.52-1.06,3.79l-2,6Z"/><path class="cls-4" d="M507.48,189.19a13.34,13.34,0,0,1-5.52,1c-5.89,0-10.32-3.72-10.32-10.57,0-6.54,4.43-11,10.91-11a11,11,0,0,1,5,.93l-.65,2.2a9.76,9.76,0,0,0-4.22-.87c-4.89,0-8.15,3.13-8.15,8.62,0,5.11,2.94,8.4,8,8.4a10.73,10.73,0,0,0,4.4-.87Z"/><path class="cls-4" d="M510.86,169h2.69v10.07h.1c.56-.8,1.11-1.55,1.64-2.23l6.39-7.84H525l-7.57,8.86,8.16,12h-3.2l-6.88-10.27-2,2.3v8h-2.69Z"/><path class="cls-4" d="M530.36,169v20.9h-2.7V169Z"/><path class="cls-4" d="M535.07,189.88V169H538l6.7,10.57a58.83,58.83,0,0,1,3.75,6.79l.06,0c-.24-2.79-.31-5.33-.31-8.59V169h2.55v20.9H548l-6.64-10.61a65.64,65.64,0,0,1-3.9-7l-.1,0c.16,2.63.22,5.14.22,8.62v8.93Z"/><path class="cls-4" d="M571.37,188.94a19.33,19.33,0,0,1-6.42,1.15,9.82,9.82,0,0,1-10.73-10.54c0-6.23,4.31-10.79,11.32-10.79a13,13,0,0,1,5.21,1l-.65,2.2a10.93,10.93,0,0,0-4.62-.9c-5.09,0-8.4,3.17-8.4,8.41s3.19,8.43,8.06,8.43a8.8,8.8,0,0,0,3.6-.56v-6.23h-4.25V178.9h6.88Z"/></g></g></svg>