<?xml version="1.0" standalone="no"?>
<!DOCTYPE svg PUBLIC "-//W3C//DTD SVG 20010904//EN"
 "http://www.w3.org/TR/2001/REC-SVG-20010904/DTD/svg10.dtd">
<svg version="1.0" xmlns="http://www.w3.org/2000/svg"
 width="548.000000pt" height="548.000000pt" viewBox="0 0 548.000000 548.000000"
 preserveAspectRatio="xMidYMid meet">
<metadata>
Created by potrace 1.11, written by Peter Selinger 2001-2013
</metadata>
<g transform="translate(0.000000,548.000000) scale(0.100000,-0.100000)"
fill="#000000" stroke="none">
<path d="M3795 5470 c-90 -14 -130 -20 -150 -25 -160 -36 -263 -70 -383 -126
-46 -21 -88 -39 -93 -39 -5 0 -9 -4 -9 -10 0 -5 -5 -10 -10 -10 -13 0 -144
-81 -148 -92 -2 -4 -10 -8 -17 -8 -7 0 -15 -3 -17 -7 -1 -5 -28 -28 -58 -53
-129 -105 -242 -240 -320 -385 -24 -44 -45 -82 -47 -84 -1 -2 -11 2 -20 10
-42 33 -244 133 -368 182 -101 40 -244 77 -360 93 -90 13 -326 7 -406 -10 -13
-3 -37 -8 -54 -11 -16 -3 -38 -8 -47 -11 -15 -4 -46 -12 -75 -18 -7 -1 -16 -5
-19 -9 -4 -4 -15 -7 -24 -7 -14 0 -89 -27 -170 -61 -49 -21 -145 -72 -161 -85
-8 -8 -19 -14 -24 -14 -4 0 -37 -21 -74 -47 -283 -203 -499 -504 -612 -858
-21 -64 -45 -154 -53 -195 -2 -14 -7 -36 -10 -50 -5 -25 -11 -62 -24 -155 -9
-67 -8 -414 1 -490 13 -104 40 -250 67 -355 6 -25 13 -53 15 -62 2 -9 9 -26
15 -37 6 -12 8 -21 6 -21 -5 0 30 -105 54 -165 4 -11 18 -47 31 -80 64 -172
187 -391 328 -584 126 -173 398 -453 524 -540 12 -8 36 -28 52 -43 17 -15 34
-28 38 -28 4 0 18 -9 30 -21 29 -28 309 -213 422 -279 186 -109 399 -213 635
-308 79 -32 355 -128 393 -137 12 -3 85 -23 162 -44 77 -22 151 -42 165 -45
14 -2 63 -13 110 -24 132 -32 183 -44 207 -47 11 -2 30 -6 41 -9 11 -4 30 -9
41 -11 12 -3 31 -7 44 -11 12 -3 33 -7 47 -10 14 -3 45 -10 70 -15 25 -6 77
-12 115 -14 l70 -5 -60 15 c-33 8 -80 19 -105 24 -154 35 -319 77 -410 103
-141 40 -369 117 -427 143 -17 8 -33 15 -36 15 -2 0 -22 8 -43 17 -22 9 -41
17 -44 18 -58 13 -539 265 -548 287 -2 5 -8 8 -13 8 -28 0 -390 258 -499 356
-137 122 -370 369 -370 392 0 6 -4 12 -8 14 -14 6 -88 110 -154 218 -57 92
-112 198 -173 335 -23 51 -94 252 -101 285 -3 14 -12 48 -20 76 -8 28 -17 61
-19 73 -3 11 -7 31 -10 43 -5 20 -18 93 -30 168 -29 182 -24 479 10 650 3 14
7 39 9 55 6 41 75 276 85 289 5 6 12 22 16 36 12 41 95 200 141 272 144 220
346 401 570 509 46 23 90 42 97 43 6 1 17 4 22 7 38 23 232 74 335 90 70 10
271 14 315 5 11 -2 43 -7 70 -11 28 -5 52 -9 55 -10 3 -1 21 -5 40 -9 125 -28
351 -121 483 -198 26 -15 51 -28 56 -28 4 0 26 37 49 83 66 131 188 279 312
379 54 43 183 129 225 150 17 8 39 19 50 26 60 33 235 99 310 117 188 44 234
50 400 50 122 0 200 -6 270 -20 62 -12 143 -35 178 -50 21 -8 38 -15 39 -15 9
2 83 -29 161 -67 125 -61 297 -175 367 -243 111 -108 131 -124 119 -97 -7 15
-16 27 -21 27 -4 0 -8 4 -8 9 0 10 -58 101 -70 111 -3 3 -17 21 -30 40 -37 53
-68 88 -155 176 -153 154 -284 248 -480 344 -121 60 -300 125 -365 134 -19 2
-42 7 -50 10 -53 19 -371 30 -465 16z"/>
</g>
</svg>
